<?xml version="1.0" encoding="UTF-8" standalone="no"?>
<!DOCTYPE svg PUBLIC "-//W3C//DTD SVG 1.1//EN"
 "http://www.w3.org/Graphics/SVG/1.1/DTD/svg11.dtd">
<!-- Generated by graphviz version 2.38.0 (20140413.2041)
 -->
<!-- Title: %3 Pages: 1 -->
<svg width="509pt" height="218pt"
 viewBox="0.00 0.00 508.50 218.00" xmlns="http://www.w3.org/2000/svg" xmlns:xlink="http://www.w3.org/1999/xlink">
<g id="graph0" class="graph" transform="scale(1 1) rotate(0) translate(4 214)">
<title>%3</title>
<!-- 285854086914822911 -->
<g id="node1" class="node"><title>285854086914822911</title>
<polygon fill="none" stroke="black" points="167,-123 0,-123 0,-87 167,-87 167,-123"/>
<text text-anchor="middle" x="83.5" y="-101.3" font-family="Times New Roman,serif" font-size="14.00">&quot;Transport intermediate B&quot;</text>
</g>
<!-- &#45;8989046298865448738 -->
<g id="node2" class="node"><title>&#45;8989046298865448738</title>
<polygon fill="none" stroke="black" points="211.5,-210 65.5,-210 65.5,-174 211.5,-174 211.5,-210"/>
<text text-anchor="middle" x="138.5" y="-188.3" font-family="Times New Roman,serif" font-size="14.00">&quot;arrival intermediate B&quot;</text>
</g>
<!-- &#45;8989046298865448738&#45;&gt;285854086914822911 -->
<g id="edge1" class="edge"><title>&#45;8989046298865448738&#45;&gt;285854086914822911</title>
<path fill="none" stroke="black" stroke-width="2.59999" d="M127.37,-173.799C119.542,-161.702 108.933,-145.305 100.108,-131.667"/>
<polygon fill="black" stroke="black" stroke-width="2.59999" points="102.985,-129.67 94.6135,-123.175 97.1076,-133.473 102.985,-129.67"/>
<text text-anchor="middle" x="121" y="-144.8" font-family="Times New Roman,serif" font-size="14.00">4s</text>
</g>
<!-- 2627585285568148710 -->
<g id="node6" class="node"><title>2627585285568148710</title>
<polygon fill="none" stroke="black" points="351.5,-123 185.5,-123 185.5,-87 351.5,-87 351.5,-123"/>
<text text-anchor="middle" x="268.5" y="-101.3" font-family="Times New Roman,serif" font-size="14.00">&quot;quick test intermediate B&quot;</text>
</g>
<!-- &#45;8989046298865448738&#45;&gt;2627585285568148710 -->
<g id="edge2" class="edge"><title>&#45;8989046298865448738&#45;&gt;2627585285568148710</title>
<path fill="none" stroke="black" stroke-width="2.06666" d="M164.807,-173.799C184.631,-160.838 212.003,-142.941 233.647,-128.789"/>
<polygon fill="black" stroke="black" stroke-width="2.06666" points="235.777,-131.577 242.232,-123.175 231.947,-125.719 235.777,-131.577"/>
<text text-anchor="middle" x="217" y="-144.8" font-family="Times New Roman,serif" font-size="14.00">3s</text>
</g>
<!-- 8721803272293178073 -->
<g id="node3" class="node"><title>8721803272293178073</title>
<polygon fill="none" stroke="black" points="500.5,-36 358.5,-36 358.5,-0 500.5,-0 500.5,-36"/>
<text text-anchor="middle" x="429.5" y="-14.3" font-family="Times New Roman,serif" font-size="14.00">&quot;order intermediate B&quot;</text>
</g>
<!-- &#45;8947565782519039824 -->
<g id="node4" class="node"><title>&#45;8947565782519039824</title>
<polygon fill="none" stroke="black" points="483,-123 376,-123 376,-87 483,-87 483,-123"/>
<text text-anchor="middle" x="429.5" y="-101.3" font-family="Times New Roman,serif" font-size="14.00">&quot;process order&quot;</text>
</g>
<!-- &#45;8947565782519039824&#45;&gt;8721803272293178073 -->
<g id="edge3" class="edge"><title>&#45;8947565782519039824&#45;&gt;8721803272293178073</title>
<path fill="none" stroke="black" d="M429.5,-86.799C429.5,-75.1626 429.5,-59.5479 429.5,-46.2368"/>
<polygon fill="black" stroke="black" points="433,-46.1754 429.5,-36.1754 426,-46.1755 433,-46.1754"/>
<text text-anchor="middle" x="436" y="-57.8" font-family="Times New Roman,serif" font-size="14.00">1s</text>
</g>
<!-- &#45;6162293948294412001 -->
<g id="node5" class="node"><title>&#45;6162293948294412001</title>
<polygon fill="none" stroke="black" points="340.5,-36 182.5,-36 182.5,-0 340.5,-0 340.5,-36"/>
<text text-anchor="middle" x="261.5" y="-14.3" font-family="Times New Roman,serif" font-size="14.00">&quot;produce intermediate B&quot;</text>
</g>
<!-- 2627585285568148710&#45;&gt;8721803272293178073 -->
<g id="edge4" class="edge"><title>2627585285568148710&#45;&gt;8721803272293178073</title>
<path fill="none" stroke="black" d="M301.081,-86.799C326.259,-73.506 361.271,-55.0215 388.379,-40.7101"/>
<polygon fill="black" stroke="black" points="390.034,-43.7942 397.243,-36.0302 386.766,-37.6039 390.034,-43.7942"/>
<text text-anchor="middle" x="365" y="-57.8" font-family="Times New Roman,serif" font-size="14.00">1s</text>
</g>
<!-- 2627585285568148710&#45;&gt;&#45;6162293948294412001 -->
<g id="edge5" class="edge"><title>2627585285568148710&#45;&gt;&#45;6162293948294412001</title>
<path fill="none" stroke="black" d="M267.083,-86.799C266.125,-75.1626 264.839,-59.5479 263.743,-46.2368"/>
<polygon fill="black" stroke="black" points="267.223,-45.8544 262.914,-36.1754 260.247,-46.429 267.223,-45.8544"/>
<text text-anchor="middle" x="271" y="-57.8" font-family="Times New Roman,serif" font-size="14.00">1s</text>
</g>
</g>
</svg>
