<?xml version="1.0" encoding="UTF-8" standalone="no"?>
<!DOCTYPE svg PUBLIC "-//W3C//DTD SVG 1.1//EN"
 "http://www.w3.org/Graphics/SVG/1.1/DTD/svg11.dtd">
<!-- Generated by graphviz version 2.38.0 (20140413.2041)
 -->
<!-- Title: %3 Pages: 1 -->
<svg width="277pt" height="218pt"
 viewBox="0.00 0.00 276.83 218.00" xmlns="http://www.w3.org/2000/svg" xmlns:xlink="http://www.w3.org/1999/xlink">
<g id="graph0" class="graph" transform="scale(1 1) rotate(0) translate(4 214)">
<title>%3</title>
<!-- &#45;5915964674224135409 -->
<g id="node1" class="node"><title>&#45;5915964674224135409</title>
<polygon fill="none" stroke="black" points="162.334,-210 91.3345,-210 91.3345,-174 162.334,-174 162.334,-210"/>
<text text-anchor="middle" x="126.834" y="-188.3" font-family="Times New Roman,serif" font-size="14.00">Accepted</text>
</g>
<!-- &#45;5915964674224135409&#45;&gt;&#45;5915964674224135409 -->
<g id="edge1" class="edge"><title>&#45;5915964674224135409&#45;&gt;&#45;5915964674224135409</title>
<path fill="none" stroke="black" stroke-width="2.6" d="M162.588,-199.836C172.628,-199.493 180.334,-196.881 180.334,-192 180.334,-188.949 177.324,-186.785 172.615,-185.507"/>
<polygon fill="black" stroke="black" stroke-width="2.6" points="172.964,-182.023 162.588,-184.164 172.034,-188.961 172.964,-182.023"/>
<text text-anchor="middle" x="192.834" y="-188.3" font-family="Times New Roman,serif" font-size="14.00">31m</text>
</g>
<!-- 3379217018554846611 -->
<g id="node2" class="node"><title>3379217018554846611</title>
<polygon fill="none" stroke="black" points="89.8345,-36 11.8345,-36 11.8345,-0 89.8345,-0 89.8345,-36"/>
<text text-anchor="middle" x="50.8345" y="-14.3" font-family="Times New Roman,serif" font-size="14.00">Completed</text>
</g>
<!-- &#45;5915964674224135409&#45;&gt;3379217018554846611 -->
<g id="edge2" class="edge"><title>&#45;5915964674224135409&#45;&gt;3379217018554846611</title>
<path fill="none" stroke="black" stroke-width="2.32766" d="M91.2633,-183.915C60.3456,-175.499 18.3077,-157.941 3.83445,-123 -7.47812,-95.689 10.3586,-64.8879 27.2109,-43.9409"/>
<polygon fill="black" stroke="black" stroke-width="2.32766" points="30.0138,-46.0467 33.7994,-36.1512 24.6692,-41.5261 30.0138,-46.0467"/>
<text text-anchor="middle" x="16.3345" y="-101.3" font-family="Times New Roman,serif" font-size="14.00">26m</text>
</g>
<!-- 1570867500339094544 -->
<g id="node3" class="node"><title>1570867500339094544</title>
<polygon fill="none" stroke="black" points="232.834,-36 172.834,-36 172.834,-0 232.834,-0 232.834,-36"/>
<text text-anchor="middle" x="202.834" y="-14.3" font-family="Times New Roman,serif" font-size="14.00">Queued</text>
</g>
<!-- &#45;5915964674224135409&#45;&gt;1570867500339094544 -->
<g id="edge3" class="edge"><title>&#45;5915964674224135409&#45;&gt;1570867500339094544</title>
<path fill="none" stroke="black" stroke-width="1.64" d="M141.876,-173.958C152.734,-160.844 166.986,-141.833 175.834,-123 187.438,-98.3018 194.597,-67.8711 198.601,-46.3239"/>
<polygon fill="black" stroke="black" stroke-width="1.64" points="202.091,-46.6877 200.367,-36.234 195.196,-45.4808 202.091,-46.6877"/>
<text text-anchor="middle" x="201.334" y="-101.3" font-family="Times New Roman,serif" font-size="14.00">12m</text>
</g>
<!-- &#45;4404092032829481729 -->
<g id="node4" class="node"><title>&#45;4404092032829481729</title>
<polygon fill="none" stroke="black" points="166.834,-123 86.8345,-123 86.8345,-87 166.834,-87 166.834,-123"/>
<text text-anchor="middle" x="126.834" y="-101.3" font-family="Times New Roman,serif" font-size="14.00">Unmatched</text>
</g>
<!-- &#45;5915964674224135409&#45;&gt;&#45;4404092032829481729 -->
<g id="edge4" class="edge"><title>&#45;5915964674224135409&#45;&gt;&#45;4404092032829481729</title>
<path fill="none" stroke="black" stroke-width="1.00596" d="M126.834,-173.799C126.834,-162.163 126.834,-146.548 126.834,-133.237"/>
<polygon fill="black" stroke="black" stroke-width="1.00596" points="130.335,-133.175 126.834,-123.175 123.335,-133.175 130.335,-133.175"/>
<text text-anchor="middle" x="133.334" y="-144.8" font-family="Times New Roman,serif" font-size="14.00">9s</text>
</g>
<!-- 3379217018554846611&#45;&gt;&#45;5915964674224135409 -->
<g id="edge5" class="edge"><title>3379217018554846611&#45;&gt;&#45;5915964674224135409</title>
<path fill="none" stroke="black" stroke-width="1.06723" d="M48.8886,-36.1009C47.204,-57.477 46.7788,-94.6942 59.8345,-123 67.784,-140.235 82.0296,-155.659 95.3471,-167.442"/>
<polygon fill="black" stroke="black" stroke-width="1.06723" points="93.1333,-170.154 103.026,-173.945 97.6571,-164.812 93.1333,-170.154"/>
<text text-anchor="middle" x="68.8345" y="-101.3" font-family="Times New Roman,serif" font-size="14.00">1m</text>
</g>
<!-- 1570867500339094544&#45;&gt;&#45;5915964674224135409 -->
<g id="edge6" class="edge"><title>1570867500339094544&#45;&gt;&#45;5915964674224135409</title>
<path fill="none" stroke="black" stroke-width="1.68681" d="M211.152,-36.1789C220.272,-57.6355 231.867,-94.9356 217.834,-123 207.905,-142.859 189.11,-158.402 171.168,-169.584"/>
<polygon fill="black" stroke="black" stroke-width="1.68681" points="169.3,-166.623 162.471,-174.724 172.861,-172.65 169.3,-166.623"/>
<text text-anchor="middle" x="236.334" y="-101.3" font-family="Times New Roman,serif" font-size="14.00">13m</text>
</g>
<!-- 1570867500339094544&#45;&gt;1570867500339094544 -->
<g id="edge7" class="edge"><title>1570867500339094544&#45;&gt;1570867500339094544</title>
<path fill="none" stroke="black" stroke-width="1.05447" d="M233.302,-25.8731C243.082,-25.7923 250.834,-23.168 250.834,-18 250.834,-14.8508 247.956,-12.6461 243.494,-11.3859"/>
<polygon fill="black" stroke="black" stroke-width="1.05447" points="243.655,-7.87937 233.302,-10.1269 242.797,-14.8266 243.655,-7.87937"/>
<text text-anchor="middle" x="259.834" y="-14.3" font-family="Times New Roman,serif" font-size="14.00">1m</text>
</g>
<!-- &#45;4404092032829481729&#45;&gt;&#45;5915964674224135409 -->
<g id="edge8" class="edge"><title>&#45;4404092032829481729&#45;&gt;&#45;5915964674224135409</title>
<path fill="none" stroke="black" stroke-width="1.00085" d="M116.558,-123.231C113.815,-128.72 111.228,-134.943 109.834,-141 108.062,-148.704 109.412,-156.89 111.982,-164.36"/>
<polygon fill="black" stroke="black" stroke-width="1.00085" points="108.795,-165.809 115.903,-173.666 115.246,-163.091 108.795,-165.809"/>
<text text-anchor="middle" x="116.334" y="-144.8" font-family="Times New Roman,serif" font-size="14.00">3s</text>
</g>
<!-- &#45;4404092032829481729&#45;&gt;3379217018554846611 -->
<g id="edge9" class="edge"><title>&#45;4404092032829481729&#45;&gt;3379217018554846611</title>
<path fill="none" stroke="black" stroke-width="1.00255" d="M111.455,-86.799C100.432,-74.4713 85.4177,-57.6787 73.0892,-43.8902"/>
<polygon fill="black" stroke="black" stroke-width="1.00255" points="75.4659,-41.2973 66.1913,-36.1754 70.2476,-45.9631 75.4659,-41.2973"/>
<text text-anchor="middle" x="99.3345" y="-57.8" font-family="Times New Roman,serif" font-size="14.00">5s</text>
</g>
<!-- &#45;4404092032829481729&#45;&gt;1570867500339094544 -->
<g id="edge10" class="edge"><title>&#45;4404092032829481729&#45;&gt;1570867500339094544</title>
<path fill="none" stroke="black" d="M142.214,-86.799C153.237,-74.4713 168.251,-57.6787 180.58,-43.8902"/>
<polygon fill="black" stroke="black" points="183.421,-45.9631 187.478,-36.1754 178.203,-41.2973 183.421,-45.9631"/>
<text text-anchor="middle" x="175.334" y="-57.8" font-family="Times New Roman,serif" font-size="14.00">2s</text>
</g>
</g>
</svg>
