<?xml version="1.0" encoding="UTF-8" standalone="no"?>
<!DOCTYPE svg PUBLIC "-//W3C//DTD SVG 1.1//EN"
 "http://www.w3.org/Graphics/SVG/1.1/DTD/svg11.dtd">
<!-- Generated by graphviz version 2.38.0 (20140413.2041)
 -->
<!-- Title: %3 Pages: 1 -->
<svg width="357pt" height="653pt"
 viewBox="0.00 0.00 357.00 653.00" xmlns="http://www.w3.org/2000/svg" xmlns:xlink="http://www.w3.org/1999/xlink">
<g id="graph0" class="graph" transform="scale(1 1) rotate(0) translate(4 649)">
<title>%3</title>
<!-- &#45;185408231671959092 -->
<g id="node1" class="node"><title>&#45;185408231671959092</title>
<polygon fill="none" stroke="black" points="157,-645 103,-645 103,-609 157,-609 157,-645"/>
<text text-anchor="middle" x="130" y="-623.3" font-family="Times New Roman,serif" font-size="14.00">0</text>
</g>
<!-- &#45;185408231671959092&#45;&gt;&#45;185408231671959092 -->
<g id="edge1" class="edge"><title>&#45;185408231671959092&#45;&gt;&#45;185408231671959092</title>
<path fill="none" stroke="black" stroke-width="1.59925" d="M157.241,-634.867C167.024,-635.036 175,-632.414 175,-627 175,-623.701 172.038,-621.438 167.51,-620.212"/>
<polygon fill="black" stroke="black" stroke-width="1.59925" points="167.552,-616.697 157.241,-619.133 166.82,-623.659 167.552,-616.697"/>
<text text-anchor="middle" x="182" y="-623.3" font-family="Times New Roman,serif" font-size="14.00">1h</text>
</g>
<!-- &#45;8922275613535952710 -->
<g id="node5" class="node"><title>&#45;8922275613535952710</title>
<polygon fill="none" stroke="black" points="194,-558 140,-558 140,-522 194,-522 194,-558"/>
<text text-anchor="middle" x="167" y="-536.3" font-family="Times New Roman,serif" font-size="14.00">4</text>
</g>
<!-- &#45;185408231671959092&#45;&gt;&#45;8922275613535952710 -->
<g id="edge2" class="edge"><title>&#45;185408231671959092&#45;&gt;&#45;8922275613535952710</title>
<path fill="none" stroke="black" stroke-width="2.6" d="M127.18,-608.645C126.323,-598.693 126.573,-586.193 131,-576 132.595,-572.327 134.777,-568.845 137.284,-565.604"/>
<polygon fill="black" stroke="black" stroke-width="2.6" points="139.966,-567.855 144.035,-558.073 134.754,-563.183 139.966,-567.855"/>
<text text-anchor="middle" x="138" y="-579.8" font-family="Times New Roman,serif" font-size="14.00">3h</text>
</g>
<!-- 5812672911213955655 -->
<g id="node7" class="node"><title>5812672911213955655</title>
<polygon fill="none" stroke="black" points="349,-297 295,-297 295,-261 349,-261 349,-297"/>
<text text-anchor="middle" x="322" y="-275.3" font-family="Times New Roman,serif" font-size="14.00">6</text>
</g>
<!-- &#45;185408231671959092&#45;&gt;5812672911213955655 -->
<g id="edge3" class="edge"><title>&#45;185408231671959092&#45;&gt;5812672911213955655</title>
<path fill="none" stroke="black" stroke-width="1.78473" d="M157.253,-626.323C211.754,-625.395 329,-614.822 329,-541 329,-541 329,-541 329,-365 329,-345.687 327.183,-323.99 325.4,-307.35"/>
<polygon fill="black" stroke="black" stroke-width="1.78473" points="328.857,-306.765 324.253,-297.222 321.901,-307.553 328.857,-306.765"/>
<text text-anchor="middle" x="336" y="-449.3" font-family="Times New Roman,serif" font-size="14.00">1h</text>
</g>
<!-- 2763602348154432710 -->
<g id="node8" class="node"><title>2763602348154432710</title>
<polygon fill="none" stroke="black" points="210,-297 156,-297 156,-261 210,-261 210,-297"/>
<text text-anchor="middle" x="183" y="-275.3" font-family="Times New Roman,serif" font-size="14.00">7</text>
</g>
<!-- &#45;185408231671959092&#45;&gt;2763602348154432710 -->
<g id="edge4" class="edge"><title>&#45;185408231671959092&#45;&gt;2763602348154432710</title>
<path fill="none" stroke="black" stroke-width="1.72979" d="M125.814,-608.934C118.222,-575.289 104.109,-498.177 117,-435 126.708,-387.42 151.585,-336.359 167.872,-306.346"/>
<polygon fill="black" stroke="black" stroke-width="1.72979" points="171.057,-307.819 172.828,-297.373 164.929,-304.434 171.057,-307.819"/>
<text text-anchor="middle" x="124" y="-449.3" font-family="Times New Roman,serif" font-size="14.00">1h</text>
</g>
<!-- 7712194392493202419 -->
<g id="node2" class="node"><title>7712194392493202419</title>
<polygon fill="none" stroke="black" points="271,-384 217,-384 217,-348 271,-348 271,-384"/>
<text text-anchor="middle" x="244" y="-362.3" font-family="Times New Roman,serif" font-size="14.00">1</text>
</g>
<!-- 7712194392493202419&#45;&gt;&#45;185408231671959092 -->
<g id="edge5" class="edge"><title>7712194392493202419&#45;&gt;&#45;185408231671959092</title>
<path fill="none" stroke="black" stroke-width="1.44078" d="M249.135,-384.118C258.766,-419.897 275.458,-503.769 239,-558 221.643,-583.819 190.841,-601.69 166.398,-612.609"/>
<polygon fill="black" stroke="black" stroke-width="1.44078" points="164.875,-609.453 157.047,-616.592 167.619,-615.893 164.875,-609.453"/>
<text text-anchor="middle" x="267" y="-492.8" font-family="Times New Roman,serif" font-size="14.00">1h</text>
</g>
<!-- &#45;534717381171081224 -->
<g id="node4" class="node"><title>&#45;534717381171081224</title>
<polygon fill="none" stroke="black" points="255,-210 201,-210 201,-174 255,-174 255,-210"/>
<text text-anchor="middle" x="228" y="-188.3" font-family="Times New Roman,serif" font-size="14.00">3</text>
</g>
<!-- 7712194392493202419&#45;&gt;&#45;534717381171081224 -->
<g id="edge6" class="edge"><title>7712194392493202419&#45;&gt;&#45;534717381171081224</title>
<path fill="none" stroke="black" stroke-width="1.25405" d="M242.631,-347.685C240.541,-321.679 236.339,-270.997 232,-228 231.742,-225.444 231.461,-222.785 231.172,-220.125"/>
<polygon fill="black" stroke="black" stroke-width="1.25405" points="234.638,-219.627 230.044,-210.08 227.682,-220.408 234.638,-219.627"/>
<text text-anchor="middle" x="250.5" y="-275.3" font-family="Times New Roman,serif" font-size="14.00">37m</text>
</g>
<!-- 7712194392493202419&#45;&gt;&#45;8922275613535952710 -->
<g id="edge7" class="edge"><title>7712194392493202419&#45;&gt;&#45;8922275613535952710</title>
<path fill="none" stroke="black" stroke-width="1.33578" d="M240.128,-384.315C233.647,-411.195 219.004,-464.026 196,-504 194.118,-507.27 191.928,-510.54 189.609,-513.695"/>
<polygon fill="black" stroke="black" stroke-width="1.33578" points="186.741,-511.68 183.299,-521.701 192.238,-516.014 186.741,-511.68"/>
<text text-anchor="middle" x="237.5" y="-449.3" font-family="Times New Roman,serif" font-size="14.00">49m</text>
</g>
<!-- 7712194392493202419&#45;&gt;5812672911213955655 -->
<g id="edge8" class="edge"><title>7712194392493202419&#45;&gt;5812672911213955655</title>
<path fill="none" stroke="black" stroke-width="1.33498" d="M259.784,-347.799C271.097,-335.471 286.507,-318.679 299.16,-304.89"/>
<polygon fill="black" stroke="black" stroke-width="1.33498" points="302.057,-306.91 306.239,-297.175 296.899,-302.177 302.057,-306.91"/>
<text text-anchor="middle" x="299.5" y="-318.8" font-family="Times New Roman,serif" font-size="14.00">49m</text>
</g>
<!-- 7712194392493202419&#45;&gt;2763602348154432710 -->
<g id="edge9" class="edge"><title>7712194392493202419&#45;&gt;2763602348154432710</title>
<path fill="none" stroke="black" stroke-width="1.14655" d="M223.036,-347.685C217.392,-342.386 211.586,-336.286 207,-330 201.755,-322.811 197.169,-314.296 193.449,-306.349"/>
<polygon fill="black" stroke="black" stroke-width="1.14655" points="196.593,-304.804 189.357,-297.065 190.188,-307.628 196.593,-304.804"/>
<text text-anchor="middle" x="219.5" y="-318.8" font-family="Times New Roman,serif" font-size="14.00">21m</text>
</g>
<!-- &#45;7845101584531611740 -->
<g id="node3" class="node"><title>&#45;7845101584531611740</title>
<polygon fill="none" stroke="black" points="186,-36 132,-36 132,-0 186,-0 186,-36"/>
<text text-anchor="middle" x="159" y="-14.3" font-family="Times New Roman,serif" font-size="14.00">2</text>
</g>
<!-- &#45;7845101584531611740&#45;&gt;&#45;185408231671959092 -->
<g id="edge10" class="edge"><title>&#45;7845101584531611740&#45;&gt;&#45;185408231671959092</title>
<path fill="none" stroke="black" stroke-width="1.37165" d="M131.667,-21.3059C86.2065,-26.8002 0,-44.9975 0,-104 0,-541 0,-541 0,-541 0,-585.68 54.4595,-608.131 92.8818,-618.41"/>
<polygon fill="black" stroke="black" stroke-width="1.37165" points="92.197,-621.847 102.748,-620.882 93.8979,-615.057 92.197,-621.847"/>
<text text-anchor="middle" x="12.5" y="-318.8" font-family="Times New Roman,serif" font-size="14.00">54m</text>
</g>
<!-- &#45;534717381171081224&#45;&gt;&#45;7845101584531611740 -->
<g id="edge11" class="edge"><title>&#45;534717381171081224&#45;&gt;&#45;7845101584531611740</title>
<path fill="none" stroke="black" stroke-width="1.6761" d="M237.075,-173.647C239.496,-168.154 241.777,-161.958 243,-156 247.768,-132.769 231.138,-87.2439 231,-87 221.279,-69.8761 205.846,-54.4644 191.758,-42.6601"/>
<polygon fill="black" stroke="black" stroke-width="1.6761" points="193.653,-39.6923 183.671,-36.141 189.26,-45.142 193.653,-39.6923"/>
<text text-anchor="middle" x="248" y="-101.3" font-family="Times New Roman,serif" font-size="14.00">1h</text>
</g>
<!-- 9176671228586630331 -->
<g id="node9" class="node"><title>9176671228586630331</title>
<polygon fill="none" stroke="black" points="186,-123 132,-123 132,-87 186,-87 186,-123"/>
<text text-anchor="middle" x="159" y="-101.3" font-family="Times New Roman,serif" font-size="14.00">8</text>
</g>
<!-- &#45;534717381171081224&#45;&gt;9176671228586630331 -->
<g id="edge12" class="edge"><title>&#45;534717381171081224&#45;&gt;9176671228586630331</title>
<path fill="none" stroke="black" stroke-width="1.26074" d="M222.84,-173.594C219.234,-163.387 213.681,-150.644 206,-141 202.593,-136.723 198.545,-132.699 194.275,-129.01"/>
<polygon fill="black" stroke="black" stroke-width="1.26074" points="196.437,-126.258 186.44,-122.75 192.068,-131.727 196.437,-126.258"/>
<text text-anchor="middle" x="226.5" y="-144.8" font-family="Times New Roman,serif" font-size="14.00">38m</text>
</g>
<!-- &#45;8922275613535952710&#45;&gt;&#45;185408231671959092 -->
<g id="edge13" class="edge"><title>&#45;8922275613535952710&#45;&gt;&#45;185408231671959092</title>
<path fill="none" stroke="black" stroke-width="1.33203" d="M159.524,-558.175C154.361,-570.036 147.395,-586.039 141.526,-599.522"/>
<polygon fill="black" stroke="black" stroke-width="1.33203" points="138.27,-598.233 137.488,-608.799 144.688,-601.027 138.27,-598.233"/>
<text text-anchor="middle" x="162.5" y="-579.8" font-family="Times New Roman,serif" font-size="14.00">48m</text>
</g>
<!-- &#45;8922275613535952710&#45;&gt;&#45;8922275613535952710 -->
<g id="edge14" class="edge"><title>&#45;8922275613535952710&#45;&gt;&#45;8922275613535952710</title>
<path fill="none" stroke="black" stroke-width="1.06209" d="M194.241,-547.867C204.024,-548.036 212,-545.414 212,-540 212,-536.701 209.038,-534.438 204.51,-533.212"/>
<polygon fill="black" stroke="black" stroke-width="1.06209" points="204.552,-529.697 194.241,-532.133 203.82,-536.659 204.552,-529.697"/>
<text text-anchor="middle" x="221" y="-536.3" font-family="Times New Roman,serif" font-size="14.00">9m</text>
</g>
<!-- &#45;1543932804599972795 -->
<g id="node6" class="node"><title>&#45;1543932804599972795</title>
<polygon fill="none" stroke="black" points="194,-471 140,-471 140,-435 194,-435 194,-471"/>
<text text-anchor="middle" x="167" y="-449.3" font-family="Times New Roman,serif" font-size="14.00">5</text>
</g>
<!-- &#45;8922275613535952710&#45;&gt;&#45;1543932804599972795 -->
<g id="edge15" class="edge"><title>&#45;8922275613535952710&#45;&gt;&#45;1543932804599972795</title>
<path fill="none" stroke="black" stroke-width="1.33918" d="M167,-521.799C167,-510.163 167,-494.548 167,-481.237"/>
<polygon fill="black" stroke="black" stroke-width="1.33918" points="170.5,-481.175 167,-471.175 163.5,-481.175 170.5,-481.175"/>
<text text-anchor="middle" x="179.5" y="-492.8" font-family="Times New Roman,serif" font-size="14.00">49m</text>
</g>
<!-- &#45;1543932804599972795&#45;&gt;7712194392493202419 -->
<g id="edge16" class="edge"><title>&#45;1543932804599972795&#45;&gt;7712194392493202419</title>
<path fill="none" stroke="black" stroke-width="1.37165" d="M178.045,-434.555C184.727,-424.573 193.727,-412.073 203,-402 206.476,-398.224 210.345,-394.459 214.278,-390.875"/>
<polygon fill="black" stroke="black" stroke-width="1.37165" points="216.625,-393.472 221.836,-384.247 212.009,-388.209 216.625,-393.472"/>
<text text-anchor="middle" x="215.5" y="-405.8" font-family="Times New Roman,serif" font-size="14.00">54m</text>
</g>
<!-- 2763602348154432710&#45;&gt;&#45;534717381171081224 -->
<g id="edge17" class="edge"><title>2763602348154432710&#45;&gt;&#45;534717381171081224</title>
<path fill="none" stroke="black" stroke-width="1.13962" d="M190.831,-260.678C195.344,-250.961 201.248,-238.682 207,-228 208.579,-225.068 210.286,-222.032 212.021,-219.031"/>
<polygon fill="black" stroke="black" stroke-width="1.13962" points="215.129,-220.652 217.209,-210.263 209.104,-217.087 215.129,-220.652"/>
<text text-anchor="middle" x="219.5" y="-231.8" font-family="Times New Roman,serif" font-size="14.00">20m</text>
</g>
<!-- 2763602348154432710&#45;&gt;&#45;1543932804599972795 -->
<g id="edge18" class="edge"><title>2763602348154432710&#45;&gt;&#45;1543932804599972795</title>
<path fill="none" stroke="black" stroke-width="1.0311" d="M181.414,-297.052C178.639,-326.88 172.882,-388.764 169.545,-424.643"/>
<polygon fill="black" stroke="black" stroke-width="1.0311" points="166.034,-424.598 168.593,-434.879 173.004,-425.246 166.034,-424.598"/>
<text text-anchor="middle" x="185" y="-362.3" font-family="Times New Roman,serif" font-size="14.00">4m</text>
</g>
<!-- 2763602348154432710&#45;&gt;9176671228586630331 -->
<g id="edge19" class="edge"><title>2763602348154432710&#45;&gt;9176671228586630331</title>
<path fill="none" stroke="black" stroke-width="1.94876" d="M180.611,-260.879C176.442,-231.001 167.806,-169.113 162.806,-133.274"/>
<polygon fill="black" stroke="black" stroke-width="1.94876" points="166.228,-132.472 161.379,-123.052 159.295,-133.439 166.228,-132.472"/>
<text text-anchor="middle" x="180" y="-188.3" font-family="Times New Roman,serif" font-size="14.00">2h</text>
</g>
<!-- 9176671228586630331&#45;&gt;&#45;185408231671959092 -->
<g id="edge20" class="edge"><title>9176671228586630331&#45;&gt;&#45;185408231671959092</title>
<path fill="none" stroke="black" stroke-width="1.54658" d="M131.934,-113.335C98.5036,-124.231 46,-148.163 46,-191 46,-541 46,-541 46,-541 46,-570.251 71.478,-593.064 94.3707,-607.658"/>
<polygon fill="black" stroke="black" stroke-width="1.54658" points="92.5901,-610.672 102.959,-612.846 96.209,-604.68 92.5901,-610.672"/>
<text text-anchor="middle" x="53" y="-362.3" font-family="Times New Roman,serif" font-size="14.00">1h</text>
</g>
<!-- 9176671228586630331&#45;&gt;&#45;7845101584531611740 -->
<g id="edge21" class="edge"><title>9176671228586630331&#45;&gt;&#45;7845101584531611740</title>
<path fill="none" stroke="black" stroke-width="1.08786" d="M159,-86.799C159,-75.1626 159,-59.5479 159,-46.2368"/>
<polygon fill="black" stroke="black" stroke-width="1.08786" points="162.5,-46.1754 159,-36.1754 155.5,-46.1755 162.5,-46.1754"/>
<text text-anchor="middle" x="171.5" y="-57.8" font-family="Times New Roman,serif" font-size="14.00">12m</text>
</g>
<!-- 9176671228586630331&#45;&gt;&#45;534717381171081224 -->
<g id="edge22" class="edge"><title>9176671228586630331&#45;&gt;&#45;534717381171081224</title>
<path fill="none" stroke="black" d="M167.561,-123.037C173.019,-133.114 180.624,-145.85 189,-156 192.094,-159.75 195.596,-163.459 199.2,-166.981"/>
<polygon fill="black" stroke="black" points="196.938,-169.657 206.645,-173.902 201.704,-164.53 196.938,-169.657"/>
<text text-anchor="middle" x="195.5" y="-144.8" font-family="Times New Roman,serif" font-size="14.00">5s</text>
</g>
<!-- 9176671228586630331&#45;&gt;&#45;1543932804599972795 -->
<g id="edge23" class="edge"><title>9176671228586630331&#45;&gt;&#45;1543932804599972795</title>
<path fill="none" stroke="black" stroke-width="1.16528" d="M151.815,-123.024C138.645,-156.283 112.797,-232.294 122,-297 128.558,-343.11 145.57,-394.684 156.696,-425.189"/>
<polygon fill="black" stroke="black" stroke-width="1.16528" points="153.46,-426.53 160.22,-434.689 160.023,-424.096 153.46,-426.53"/>
<text text-anchor="middle" x="134.5" y="-275.3" font-family="Times New Roman,serif" font-size="14.00">24m</text>
</g>
<!-- 9176671228586630331&#45;&gt;9176671228586630331 -->
<g id="edge24" class="edge"><title>9176671228586630331&#45;&gt;9176671228586630331</title>
<path fill="none" stroke="black" stroke-width="1.00704" d="M186.241,-112.867C196.024,-113.036 204,-110.414 204,-105 204,-101.701 201.038,-99.4382 196.51,-98.2123"/>
<polygon fill="black" stroke="black" stroke-width="1.00704" points="196.552,-94.6975 186.241,-97.1327 195.82,-101.659 196.552,-94.6975"/>
<text text-anchor="middle" x="213" y="-101.3" font-family="Times New Roman,serif" font-size="14.00">1m</text>
</g>
</g>
</svg>
