<?xml version="1.0" encoding="UTF-8" standalone="no"?>
<!DOCTYPE svg PUBLIC "-//W3C//DTD SVG 1.1//EN"
 "http://www.w3.org/Graphics/SVG/1.1/DTD/svg11.dtd">
<!-- Generated by graphviz version 2.38.0 (20140413.2041)
 -->
<!-- Title: %3 Pages: 1 -->
<svg width="326pt" height="131pt"
 viewBox="0.00 0.00 325.50 131.00" xmlns="http://www.w3.org/2000/svg" xmlns:xlink="http://www.w3.org/1999/xlink">
<g id="graph0" class="graph" transform="scale(1 1) rotate(0) translate(4 127)">
<title>%3</title>
<!-- 6808437253188535576 -->
<g id="node1" class="node"><title>6808437253188535576</title>
<polygon fill="none" stroke="black" points="142,-36 0,-36 0,-0 142,-0 142,-36"/>
<text text-anchor="middle" x="71" y="-14.3" font-family="Times,serif" font-size="14.00">&quot;order intermediate B&quot;</text>
</g>
<!-- &#45;8175931128554324227 -->
<g id="node2" class="node"><title>&#45;8175931128554324227</title>
<polygon fill="none" stroke="black" points="121.5,-123 20.5,-123 20.5,-87 121.5,-87 121.5,-123"/>
<text text-anchor="middle" x="71" y="-101.3" font-family="Times,serif" font-size="14.00">&quot;process order&quot;</text>
</g>
<!-- &#45;8175931128554324227&#45;&gt;6808437253188535576 -->
<g id="edge1" class="edge"><title>&#45;8175931128554324227&#45;&gt;6808437253188535576</title>
<path fill="none" stroke="black" stroke-width="2.6" d="M71,-86.799C71,-75.1626 71,-59.5479 71,-46.2368"/>
<polygon fill="black" stroke="black" stroke-width="2.6" points="74.5001,-46.1754 71,-36.1754 67.5001,-46.1755 74.5001,-46.1754"/>
<text text-anchor="middle" x="79.5" y="-57.8" font-family="Times,serif" font-size="14.00">9Y</text>
</g>
<!-- 8584351460369247999 -->
<g id="node3" class="node"><title>8584351460369247999</title>
<polygon fill="none" stroke="black" points="317.5,-36 160.5,-36 160.5,-0 317.5,-0 317.5,-36"/>
<text text-anchor="middle" x="239" y="-14.3" font-family="Times,serif" font-size="14.00">&quot;produce intermediate B&quot;</text>
</g>
<!-- 1818066524793919814 -->
<g id="node4" class="node"><title>1818066524793919814</title>
<polygon fill="none" stroke="black" points="314,-123 148,-123 148,-87 314,-87 314,-123"/>
<text text-anchor="middle" x="231" y="-101.3" font-family="Times,serif" font-size="14.00">&quot;quick test intermediate B&quot;</text>
</g>
<!-- 1818066524793919814&#45;&gt;6808437253188535576 -->
<g id="edge2" class="edge"><title>1818066524793919814&#45;&gt;6808437253188535576</title>
<path fill="none" stroke="black" d="M198.622,-86.799C173.708,-73.5638 139.108,-55.1821 112.218,-40.897"/>
<polygon fill="black" stroke="black" points="113.53,-37.6309 103.057,-36.0302 110.246,-43.8127 113.53,-37.6309"/>
<text text-anchor="middle" x="169.5" y="-57.8" font-family="Times,serif" font-size="14.00">3Y</text>
</g>
<!-- 1818066524793919814&#45;&gt;8584351460369247999 -->
<g id="edge3" class="edge"><title>1818066524793919814&#45;&gt;8584351460369247999</title>
<path fill="none" stroke="black" d="M232.619,-86.799C233.714,-75.1626 235.184,-59.5479 236.437,-46.2368"/>
<polygon fill="black" stroke="black" points="239.931,-46.4594 237.383,-36.1754 232.962,-45.8034 239.931,-46.4594"/>
<text text-anchor="middle" x="244.5" y="-57.8" font-family="Times,serif" font-size="14.00">3Y</text>
</g>
</g>
</svg>
