<?xml version="1.0" encoding="UTF-8" standalone="no"?>
<!DOCTYPE svg PUBLIC "-//W3C//DTD SVG 1.1//EN"
 "http://www.w3.org/Graphics/SVG/1.1/DTD/svg11.dtd">
<!-- Generated by graphviz version 2.38.0 (20140413.2041)
 -->
<!-- Title: %3 Pages: 1 -->
<svg width="206pt" height="218pt"
 viewBox="0.00 0.00 206.00 218.00" xmlns="http://www.w3.org/2000/svg" xmlns:xlink="http://www.w3.org/1999/xlink">
<g id="graph0" class="graph" transform="scale(1 1) rotate(0) translate(4 214)">
<title>%3</title>
<!-- 7146442441572951912 -->
<g id="node1" class="node"><title>7146442441572951912</title>
<polygon fill="none" stroke="black" points="54,-123 0,-123 0,-87 54,-87 54,-123"/>
<text text-anchor="middle" x="27" y="-101.3" font-family="Times New Roman,serif" font-size="14.00">1</text>
</g>
<!-- &#45;8787462180160257325 -->
<g id="node6" class="node"><title>&#45;8787462180160257325</title>
<polygon fill="none" stroke="black" points="90,-36 36,-36 36,-0 90,-0 90,-36"/>
<text text-anchor="middle" x="63" y="-14.3" font-family="Times New Roman,serif" font-size="14.00">9</text>
</g>
<!-- 7146442441572951912&#45;&gt;&#45;8787462180160257325 -->
<g id="edge1" class="edge"><title>7146442441572951912&#45;&gt;&#45;8787462180160257325</title>
<path fill="none" stroke="black" d="M34.2851,-86.799C39.3111,-74.9322 46.0893,-58.9279 51.7982,-45.4488"/>
<polygon fill="black" stroke="black" points="55.0486,-46.7486 55.7257,-36.1754 48.6028,-44.0186 55.0486,-46.7486"/>
<text text-anchor="middle" x="53.5" y="-57.8" font-family="Times New Roman,serif" font-size="14.00">1s</text>
</g>
<!-- 908998651497858071 -->
<g id="node2" class="node"><title>908998651497858071</title>
<polygon fill="none" stroke="black" points="198,-36 144,-36 144,-0 198,-0 198,-36"/>
<text text-anchor="middle" x="171" y="-14.3" font-family="Times New Roman,serif" font-size="14.00">10</text>
</g>
<!-- &#45;3278125253929883551 -->
<g id="node3" class="node"><title>&#45;3278125253929883551</title>
<polygon fill="none" stroke="black" points="126,-123 72,-123 72,-87 126,-87 126,-123"/>
<text text-anchor="middle" x="99" y="-101.3" font-family="Times New Roman,serif" font-size="14.00">11</text>
</g>
<!-- 3631283286270297293 -->
<g id="node4" class="node"><title>3631283286270297293</title>
<polygon fill="none" stroke="black" points="153,-210 99,-210 99,-174 153,-174 153,-210"/>
<text text-anchor="middle" x="126" y="-188.3" font-family="Times New Roman,serif" font-size="14.00">3</text>
</g>
<!-- 3631283286270297293&#45;&gt;&#45;3278125253929883551 -->
<g id="edge2" class="edge"><title>3631283286270297293&#45;&gt;&#45;3278125253929883551</title>
<path fill="none" stroke="black" stroke-width="2.59999" d="M120.536,-173.799C116.803,-162.047 111.782,-146.238 107.526,-132.842"/>
<polygon fill="black" stroke="black" stroke-width="2.59999" points="110.819,-131.647 104.456,-123.175 104.147,-133.766 110.819,-131.647"/>
<text text-anchor="middle" x="120.5" y="-144.8" font-family="Times New Roman,serif" font-size="14.00">4s</text>
</g>
<!-- 8079277518473779426 -->
<g id="node5" class="node"><title>8079277518473779426</title>
<polygon fill="none" stroke="black" points="198,-123 144,-123 144,-87 198,-87 198,-123"/>
<text text-anchor="middle" x="171" y="-101.3" font-family="Times New Roman,serif" font-size="14.00">4</text>
</g>
<!-- 3631283286270297293&#45;&gt;8079277518473779426 -->
<g id="edge3" class="edge"><title>3631283286270297293&#45;&gt;8079277518473779426</title>
<path fill="none" stroke="black" stroke-width="2.06666" d="M135.106,-173.799C141.45,-161.817 150.026,-145.617 157.205,-132.057"/>
<polygon fill="black" stroke="black" stroke-width="2.06666" points="160.321,-133.651 161.907,-123.175 154.135,-130.376 160.321,-133.651"/>
<text text-anchor="middle" x="157.5" y="-144.8" font-family="Times New Roman,serif" font-size="14.00">3s</text>
</g>
<!-- 8079277518473779426&#45;&gt;908998651497858071 -->
<g id="edge4" class="edge"><title>8079277518473779426&#45;&gt;908998651497858071</title>
<path fill="none" stroke="black" d="M171,-86.799C171,-75.1626 171,-59.5479 171,-46.2368"/>
<polygon fill="black" stroke="black" points="174.5,-46.1754 171,-36.1754 167.5,-46.1755 174.5,-46.1754"/>
<text text-anchor="middle" x="177.5" y="-57.8" font-family="Times New Roman,serif" font-size="14.00">1s</text>
</g>
<!-- 8079277518473779426&#45;&gt;&#45;8787462180160257325 -->
<g id="edge5" class="edge"><title>8079277518473779426&#45;&gt;&#45;8787462180160257325</title>
<path fill="none" stroke="black" d="M149.145,-86.799C133.042,-74.1257 110.944,-56.7335 93.1609,-42.7377"/>
<polygon fill="black" stroke="black" points="94.8457,-39.6098 84.8229,-36.1754 90.5164,-45.1105 94.8457,-39.6098"/>
<text text-anchor="middle" x="129.5" y="-57.8" font-family="Times New Roman,serif" font-size="14.00">1s</text>
</g>
</g>
</svg>
