<?xml version="1.0" encoding="UTF-8" standalone="no"?>
<!DOCTYPE svg PUBLIC "-//W3C//DTD SVG 1.1//EN"
 "http://www.w3.org/Graphics/SVG/1.1/DTD/svg11.dtd">
<!-- Generated by graphviz version 2.38.0 (20140413.2041)
 -->
<!-- Title: %3 Pages: 1 -->
<svg width="326pt" height="131pt"
 viewBox="0.00 0.00 326.00 131.00" xmlns="http://www.w3.org/2000/svg" xmlns:xlink="http://www.w3.org/1999/xlink">
<g id="graph0" class="graph" transform="scale(1 1) rotate(0) translate(4 127)">
<title>%3</title>
<!-- 941792455129574489 -->
<g id="node1" class="node"><title>941792455129574489</title>
<polygon fill="none" stroke="black" points="142,-36 0,-36 0,-0 142,-0 142,-36"/>
<text text-anchor="middle" x="71" y="-14.3" font-family="Times New Roman,serif" font-size="14.00">&quot;order intermediate B&quot;</text>
</g>
<!-- &#45;1131388551314252010 -->
<g id="node2" class="node"><title>&#45;1131388551314252010</title>
<polygon fill="none" stroke="black" points="124.5,-123 17.5,-123 17.5,-87 124.5,-87 124.5,-123"/>
<text text-anchor="middle" x="71" y="-101.3" font-family="Times New Roman,serif" font-size="14.00">&quot;process order&quot;</text>
</g>
<!-- &#45;1131388551314252010&#45;&gt;941792455129574489 -->
<g id="edge1" class="edge"><title>&#45;1131388551314252010&#45;&gt;941792455129574489</title>
<path fill="none" stroke="black" stroke-width="2.6" d="M71,-86.799C71,-75.1626 71,-59.5479 71,-46.2368"/>
<polygon fill="black" stroke="black" stroke-width="2.6" points="74.5001,-46.1754 71,-36.1754 67.5001,-46.1755 74.5001,-46.1754"/>
<text text-anchor="middle" x="79.5" y="-57.8" font-family="Times New Roman,serif" font-size="14.00">9Y</text>
</g>
<!-- &#45;7217031013523669641 -->
<g id="node3" class="node"><title>&#45;7217031013523669641</title>
<polygon fill="none" stroke="black" points="318,-36 160,-36 160,-0 318,-0 318,-36"/>
<text text-anchor="middle" x="239" y="-14.3" font-family="Times New Roman,serif" font-size="14.00">&quot;produce intermediate B&quot;</text>
</g>
<!-- 6267253180865702108 -->
<g id="node4" class="node"><title>6267253180865702108</title>
<polygon fill="none" stroke="black" points="316,-123 150,-123 150,-87 316,-87 316,-123"/>
<text text-anchor="middle" x="233" y="-101.3" font-family="Times New Roman,serif" font-size="14.00">&quot;quick test intermediate B&quot;</text>
</g>
<!-- 6267253180865702108&#45;&gt;941792455129574489 -->
<g id="edge2" class="edge"><title>6267253180865702108&#45;&gt;941792455129574489</title>
<path fill="none" stroke="black" d="M200.217,-86.799C174.882,-73.506 139.653,-55.0215 112.377,-40.7101"/>
<polygon fill="black" stroke="black" points="113.939,-37.5771 103.458,-36.0302 110.686,-43.7757 113.939,-37.5771"/>
<text text-anchor="middle" x="170.5" y="-57.8" font-family="Times New Roman,serif" font-size="14.00">3Y</text>
</g>
<!-- 6267253180865702108&#45;&gt;&#45;7217031013523669641 -->
<g id="edge3" class="edge"><title>6267253180865702108&#45;&gt;&#45;7217031013523669641</title>
<path fill="none" stroke="black" d="M234.214,-86.799C235.036,-75.1626 236.138,-59.5479 237.077,-46.2368"/>
<polygon fill="black" stroke="black" points="240.575,-46.3971 237.788,-36.1754 233.592,-45.9041 240.575,-46.3971"/>
<text text-anchor="middle" x="245.5" y="-57.8" font-family="Times New Roman,serif" font-size="14.00">3Y</text>
</g>
</g>
</svg>
