<?xml version="1.0" encoding="UTF-8" standalone="no"?>
<!DOCTYPE svg PUBLIC "-//W3C//DTD SVG 1.1//EN"
 "http://www.w3.org/Graphics/SVG/1.1/DTD/svg11.dtd">
<!-- Generated by graphviz version 2.38.0 (20140413.2041)
 -->
<!-- Title: %3 Pages: 1 -->
<svg width="294pt" height="218pt"
 viewBox="0.00 0.00 294.24 218.00" xmlns="http://www.w3.org/2000/svg" xmlns:xlink="http://www.w3.org/1999/xlink">
<g id="graph0" class="graph" transform="scale(1 1) rotate(0) translate(4 214)">
<title>%3</title>
<!-- &#45;8905613032566471324 -->
<g id="node1" class="node"><title>&#45;8905613032566471324</title>
<polygon fill="none" stroke="black" points="173.744,-210 102.744,-210 102.744,-174 173.744,-174 173.744,-210"/>
<text text-anchor="middle" x="138.244" y="-188.3" font-family="Times New Roman,serif" font-size="14.00">Accepted</text>
</g>
<!-- &#45;8905613032566471324&#45;&gt;&#45;8905613032566471324 -->
<g id="edge1" class="edge"><title>&#45;8905613032566471324&#45;&gt;&#45;8905613032566471324</title>
<path fill="none" stroke="black" stroke-width="1.15316" d="M173.997,-199.836C184.037,-199.493 191.744,-196.881 191.744,-192 191.744,-188.949 188.733,-186.785 184.024,-185.507"/>
<polygon fill="black" stroke="black" stroke-width="1.15316" points="184.373,-182.023 173.997,-184.164 183.444,-188.961 184.373,-182.023"/>
<text text-anchor="middle" x="206.744" y="-188.3" font-family="Times New Roman,serif" font-size="14.00">2MO</text>
</g>
<!-- 3155627705909380143 -->
<g id="node2" class="node"><title>3155627705909380143</title>
<polygon fill="none" stroke="black" points="95.2437,-36 17.2437,-36 17.2437,-0 95.2437,-0 95.2437,-36"/>
<text text-anchor="middle" x="56.2437" y="-14.3" font-family="Times New Roman,serif" font-size="14.00">Completed</text>
</g>
<!-- &#45;8905613032566471324&#45;&gt;3155627705909380143 -->
<g id="edge2" class="edge"><title>&#45;8905613032566471324&#45;&gt;3155627705909380143</title>
<path fill="none" stroke="black" stroke-width="1.08524" d="M102.521,-185.365C68.9777,-177.832 21.4544,-160.741 4.24375,-123 -8.30789,-95.4759 11.6536,-64.5388 30.3647,-43.6158"/>
<polygon fill="black" stroke="black" stroke-width="1.08524" points="33.1128,-45.802 37.4042,-36.1152 28.0087,-41.0116 33.1128,-45.802"/>
<text text-anchor="middle" x="19.2437" y="-101.3" font-family="Times New Roman,serif" font-size="14.00">1MO</text>
</g>
<!-- &#45;2903397293046831448 -->
<g id="node3" class="node"><title>&#45;2903397293046831448</title>
<polygon fill="none" stroke="black" points="244.244,-36 184.244,-36 184.244,-0 244.244,-0 244.244,-36"/>
<text text-anchor="middle" x="214.244" y="-14.3" font-family="Times New Roman,serif" font-size="14.00">Queued</text>
</g>
<!-- &#45;8905613032566471324&#45;&gt;&#45;2903397293046831448 -->
<g id="edge3" class="edge"><title>&#45;8905613032566471324&#45;&gt;&#45;2903397293046831448</title>
<path fill="none" stroke="black" stroke-width="1.00476" d="M153.285,-173.958C164.143,-160.844 178.396,-141.833 187.244,-123 198.847,-98.3018 206.006,-67.8711 210.011,-46.3239"/>
<polygon fill="black" stroke="black" stroke-width="1.00476" points="213.5,-46.6877 211.777,-36.234 206.605,-45.4808 213.5,-46.6877"/>
<text text-anchor="middle" x="212.244" y="-101.3" font-family="Times New Roman,serif" font-size="14.00">10D</text>
</g>
<!-- &#45;8187861315915979379 -->
<g id="node4" class="node"><title>&#45;8187861315915979379</title>
<polygon fill="none" stroke="black" points="178.244,-123 98.2437,-123 98.2437,-87 178.244,-87 178.244,-123"/>
<text text-anchor="middle" x="138.244" y="-101.3" font-family="Times New Roman,serif" font-size="14.00">Unmatched</text>
</g>
<!-- &#45;8905613032566471324&#45;&gt;&#45;8187861315915979379 -->
<g id="edge4" class="edge"><title>&#45;8905613032566471324&#45;&gt;&#45;8187861315915979379</title>
<path fill="none" stroke="black" d="M138.244,-173.799C138.244,-162.163 138.244,-146.548 138.244,-133.237"/>
<polygon fill="black" stroke="black" points="141.744,-133.175 138.244,-123.175 134.744,-133.175 141.744,-133.175"/>
<text text-anchor="middle" x="146.744" y="-144.8" font-family="Times New Roman,serif" font-size="14.00">8D</text>
</g>
<!-- 3155627705909380143&#45;&gt;&#45;8905613032566471324 -->
<g id="edge5" class="edge"><title>3155627705909380143&#45;&gt;&#45;8905613032566471324</title>
<path fill="none" stroke="black" stroke-width="1.01322" d="M54.103,-36.1933C52.2172,-57.6649 51.5847,-94.9804 65.2437,-123 73.8087,-140.57 89.0083,-155.863 103.329,-167.473"/>
<polygon fill="black" stroke="black" stroke-width="1.01322" points="101.551,-170.523 111.602,-173.873 105.833,-164.986 101.551,-170.523"/>
<text text-anchor="middle" x="77.2437" y="-101.3" font-family="Times New Roman,serif" font-size="14.00">14D</text>
</g>
<!-- &#45;2903397293046831448&#45;&gt;&#45;8905613032566471324 -->
<g id="edge6" class="edge"><title>&#45;2903397293046831448&#45;&gt;&#45;8905613032566471324</title>
<path fill="none" stroke="black" stroke-width="1.02671" d="M222.253,-36.1659C231.018,-57.6091 242.102,-94.8954 228.244,-123 218.656,-142.444 200.53,-157.788 183.044,-168.941"/>
<polygon fill="black" stroke="black" stroke-width="1.02671" points="180.762,-166.229 174.007,-174.391 184.377,-172.224 180.762,-166.229"/>
<text text-anchor="middle" x="246.244" y="-101.3" font-family="Times New Roman,serif" font-size="14.00">21D</text>
</g>
<!-- &#45;2903397293046831448&#45;&gt;&#45;2903397293046831448 -->
<g id="edge7" class="edge"><title>&#45;2903397293046831448&#45;&gt;&#45;2903397293046831448</title>
<path fill="none" stroke="black" stroke-width="1.03691" d="M244.711,-25.8731C254.492,-25.7923 262.244,-23.168 262.244,-18 262.244,-14.8508 259.365,-12.6461 254.903,-11.3859"/>
<polygon fill="black" stroke="black" stroke-width="1.03691" points="255.065,-7.87937 244.711,-10.1269 254.206,-14.8266 255.065,-7.87937"/>
<text text-anchor="middle" x="274.244" y="-14.3" font-family="Times New Roman,serif" font-size="14.00">26D</text>
</g>
<!-- &#45;8187861315915979379&#45;&gt;&#45;8905613032566471324 -->
<g id="edge8" class="edge"><title>&#45;8187861315915979379&#45;&gt;&#45;8905613032566471324</title>
<path fill="none" stroke="black" stroke-width="1.81488" d="M125.353,-123.311C122.047,-128.703 118.946,-134.854 117.244,-141 115.053,-148.911 116.79,-157.233 120.034,-164.768"/>
<polygon fill="black" stroke="black" stroke-width="1.81488" points="117.025,-166.568 124.766,-173.802 123.226,-163.32 117.025,-166.568"/>
<text text-anchor="middle" x="125.744" y="-144.8" font-family="Times New Roman,serif" font-size="14.00">1Y</text>
</g>
<!-- &#45;8187861315915979379&#45;&gt;3155627705909380143 -->
<g id="edge9" class="edge"><title>&#45;8187861315915979379&#45;&gt;3155627705909380143</title>
<path fill="none" stroke="black" stroke-width="2.6" d="M121.65,-86.799C109.646,-74.3561 93.2541,-57.3644 79.8833,-43.5044"/>
<polygon fill="black" stroke="black" stroke-width="2.6" points="82.2749,-40.9424 72.813,-36.1754 77.237,-45.8024 82.2749,-40.9424"/>
<text text-anchor="middle" x="109.744" y="-57.8" font-family="Times New Roman,serif" font-size="14.00">2Y</text>
</g>
<!-- &#45;8187861315915979379&#45;&gt;&#45;2903397293046831448 -->
<g id="edge10" class="edge"><title>&#45;8187861315915979379&#45;&gt;&#45;2903397293046831448</title>
<path fill="none" stroke="black" stroke-width="1.26689" d="M147.346,-86.8151C153.157,-76.6856 161.268,-63.9473 170.244,-54 173.75,-50.1138 177.718,-46.3199 181.801,-42.7503"/>
<polygon fill="black" stroke="black" stroke-width="1.26689" points="184.239,-45.275 189.701,-36.1966 179.77,-39.8874 184.239,-45.275"/>
<text text-anchor="middle" x="185.244" y="-57.8" font-family="Times New Roman,serif" font-size="14.00">4MO</text>
</g>
</g>
</svg>
