<?xml version="1.0" encoding="UTF-8" standalone="no"?>
<!DOCTYPE svg PUBLIC "-//W3C//DTD SVG 1.1//EN"
 "http://www.w3.org/Graphics/SVG/1.1/DTD/svg11.dtd">
<!-- Generated by graphviz version 2.38.0 (20140413.2041)
 -->
<!-- Title: %3 Pages: 1 -->
<svg width="282pt" height="1001pt"
 viewBox="0.00 0.00 282.00 1001.00" xmlns="http://www.w3.org/2000/svg" xmlns:xlink="http://www.w3.org/1999/xlink">
<g id="graph0" class="graph" transform="scale(1 1) rotate(0) translate(4 997)">
<title>%3</title>
<!-- &#45;480004666268336517 -->
<g id="node1" class="node"><title>&#45;480004666268336517</title>
<polygon fill="none" stroke="black" points="209.5,-732 118.5,-732 118.5,-696 209.5,-696 209.5,-732"/>
<text text-anchor="middle" x="164" y="-710.3" font-family="Times New Roman,serif" font-size="14.00">&quot;Production&quot;</text>
</g>
<!-- &#45;480004666268336517&#45;&gt;&#45;480004666268336517 -->
<g id="edge1" class="edge"><title>&#45;480004666268336517&#45;&gt;&#45;480004666268336517</title>
<path fill="none" stroke="black" d="M209.665,-721.683C219.966,-720.991 227.5,-718.43 227.5,-714 227.5,-711.231 224.557,-709.193 219.835,-707.884"/>
<polygon fill="black" stroke="black" points="220.081,-704.381 209.665,-706.317 219.015,-711.299 220.081,-704.381"/>
<text text-anchor="middle" x="234" y="-710.3" font-family="Times New Roman,serif" font-size="14.00">1s</text>
</g>
<!-- 6741757954660197814 -->
<g id="node12" class="node"><title>6741757954660197814</title>
<polygon fill="none" stroke="black" points="244,-645 78,-645 78,-609 244,-609 244,-645"/>
<text text-anchor="middle" x="161" y="-623.3" font-family="Times New Roman,serif" font-size="14.00">&quot;quick test intermediate B&quot;</text>
</g>
<!-- &#45;480004666268336517&#45;&gt;6741757954660197814 -->
<g id="edge2" class="edge"><title>&#45;480004666268336517&#45;&gt;6741757954660197814</title>
<path fill="none" stroke="black" stroke-width="2.6" d="M142.833,-695.662C138.032,-690.529 133.589,-684.52 131,-678 127.724,-669.75 130.212,-661.285 134.9,-653.721"/>
<polygon fill="black" stroke="black" stroke-width="2.6" points="137.999,-655.422 141.2,-645.322 132.399,-651.221 137.999,-655.422"/>
<text text-anchor="middle" x="137.5" y="-666.8" font-family="Times New Roman,serif" font-size="14.00">5s</text>
</g>
<!-- &#45;6117279941585569277 -->
<g id="node2" class="node"><title>&#45;6117279941585569277</title>
<polygon fill="none" stroke="black" points="240.5,-471 73.5,-471 73.5,-435 240.5,-435 240.5,-471"/>
<text text-anchor="middle" x="157" y="-449.3" font-family="Times New Roman,serif" font-size="14.00">&quot;Transport intermediate B&quot;</text>
</g>
<!-- &#45;7264351477869569391 -->
<g id="node11" class="node"><title>&#45;7264351477869569391</title>
<polygon fill="none" stroke="black" points="239,-384 81,-384 81,-348 239,-348 239,-384"/>
<text text-anchor="middle" x="160" y="-362.3" font-family="Times New Roman,serif" font-size="14.00">&quot;produce intermediate B&quot;</text>
</g>
<!-- &#45;6117279941585569277&#45;&gt;&#45;7264351477869569391 -->
<g id="edge3" class="edge"><title>&#45;6117279941585569277&#45;&gt;&#45;7264351477869569391</title>
<path fill="none" stroke="black" stroke-width="2.6" d="M157.607,-434.799C158.018,-423.163 158.569,-407.548 159.039,-394.237"/>
<polygon fill="black" stroke="black" stroke-width="2.6" points="162.539,-394.293 159.394,-384.175 155.543,-394.046 162.539,-394.293"/>
<text text-anchor="middle" x="165.5" y="-405.8" font-family="Times New Roman,serif" font-size="14.00">5s</text>
</g>
<!-- 9012781278052482139 -->
<g id="node3" class="node"><title>9012781278052482139</title>
<polygon fill="none" stroke="black" points="234,-558 88,-558 88,-522 234,-522 234,-558"/>
<text text-anchor="middle" x="161" y="-536.3" font-family="Times New Roman,serif" font-size="14.00">&quot;arrival intermediate B&quot;</text>
</g>
<!-- 9012781278052482139&#45;&gt;&#45;6117279941585569277 -->
<g id="edge4" class="edge"><title>9012781278052482139&#45;&gt;&#45;6117279941585569277</title>
<path fill="none" stroke="black" stroke-width="2.2" d="M160.191,-521.799C159.643,-510.163 158.908,-494.548 158.282,-481.237"/>
<polygon fill="black" stroke="black" stroke-width="2.2" points="161.775,-481 157.808,-471.175 154.782,-481.329 161.775,-481"/>
<text text-anchor="middle" x="166.5" y="-492.8" font-family="Times New Roman,serif" font-size="14.00">4s</text>
</g>
<!-- &#45;4632010280326198875 -->
<g id="node7" class="node"><title>&#45;4632010280326198875</title>
<polygon fill="none" stroke="black" points="241,-297 99,-297 99,-261 241,-261 241,-297"/>
<text text-anchor="middle" x="170" y="-275.3" font-family="Times New Roman,serif" font-size="14.00">&quot;order intermediate B&quot;</text>
</g>
<!-- 9012781278052482139&#45;&gt;&#45;4632010280326198875 -->
<g id="edge5" class="edge"><title>9012781278052482139&#45;&gt;&#45;4632010280326198875</title>
<path fill="none" stroke="black" stroke-width="2.6" d="M197.226,-521.734C216.718,-510.312 238.968,-493.312 250,-471 258.362,-454.087 265.18,-384.645 248,-348 239.442,-329.746 223.399,-314.429 208.078,-302.982"/>
<polygon fill="black" stroke="black" stroke-width="2.6" points="209.872,-299.963 199.692,-297.026 205.818,-305.67 209.872,-299.963"/>
<text text-anchor="middle" x="264.5" y="-405.8" font-family="Times New Roman,serif" font-size="14.00">5s</text>
</g>
<!-- 4601421142027757457 -->
<g id="node4" class="node"><title>4601421142027757457</title>
<polygon fill="none" stroke="black" points="274,-210 66,-210 66,-174 274,-174 274,-210"/>
<text text-anchor="middle" x="170" y="-188.3" font-family="Times New Roman,serif" font-size="14.00">&quot;calculate demand intermediate B&quot;</text>
</g>
<!-- &#45;60550648619381333 -->
<g id="node10" class="node"><title>&#45;60550648619381333</title>
<polygon fill="none" stroke="black" points="185.5,-123 78.5,-123 78.5,-87 185.5,-87 185.5,-123"/>
<text text-anchor="middle" x="132" y="-101.3" font-family="Times New Roman,serif" font-size="14.00">&quot;process order&quot;</text>
</g>
<!-- 4601421142027757457&#45;&gt;&#45;60550648619381333 -->
<g id="edge6" class="edge"><title>4601421142027757457&#45;&gt;&#45;60550648619381333</title>
<path fill="none" stroke="black" stroke-width="2.6" d="M162.31,-173.799C157.005,-161.932 149.85,-145.928 143.824,-132.449"/>
<polygon fill="black" stroke="black" stroke-width="2.6" points="146.955,-130.876 139.678,-123.175 140.565,-133.733 146.955,-130.876"/>
<text text-anchor="middle" x="160.5" y="-144.8" font-family="Times New Roman,serif" font-size="14.00">5s</text>
</g>
<!-- 7933011040498736960 -->
<g id="node5" class="node"><title>7933011040498736960</title>
<polygon fill="none" stroke="black" points="136,-993 0,-993 0,-957 136,-957 136,-993"/>
<text text-anchor="middle" x="68" y="-971.3" font-family="Times New Roman,serif" font-size="14.00">&quot;delivery of product&quot;</text>
</g>
<!-- &#45;606468339242818359 -->
<g id="node8" class="node"><title>&#45;606468339242818359</title>
<polygon fill="none" stroke="black" points="98.5,-36 39.5,-36 39.5,-0 98.5,-0 98.5,-36"/>
<text text-anchor="middle" x="69" y="-14.3" font-family="Times New Roman,serif" font-size="14.00">&quot;order&quot;</text>
</g>
<!-- 7933011040498736960&#45;&gt;&#45;606468339242818359 -->
<g id="edge7" class="edge"><title>7933011040498736960&#45;&gt;&#45;606468339242818359</title>
<path fill="none" stroke="black" stroke-width="2.2" d="M58.0104,-956.719C49.2834,-939.972 38,-913.569 38,-889 38,-889 38,-889 38,-104 38,-83.3848 46.1476,-61.5669 54.0888,-45.1975"/>
<polygon fill="black" stroke="black" stroke-width="2.2" points="57.2335,-46.7354 58.6774,-36.2394 51.0032,-43.5441 57.2335,-46.7354"/>
<text text-anchor="middle" x="44.5" y="-492.8" font-family="Times New Roman,serif" font-size="14.00">4s</text>
</g>
<!-- 66112014952212417 -->
<g id="node9" class="node"><title>66112014952212417</title>
<polygon fill="none" stroke="black" points="184,-906 66,-906 66,-870 184,-870 184,-906"/>
<text text-anchor="middle" x="125" y="-884.3" font-family="Times New Roman,serif" font-size="14.00">&quot;prepare delivery&quot;</text>
</g>
<!-- 7933011040498736960&#45;&gt;66112014952212417 -->
<g id="edge8" class="edge"><title>7933011040498736960&#45;&gt;66112014952212417</title>
<path fill="none" stroke="black" stroke-width="2.2" d="M79.5348,-956.799C87.6471,-944.702 98.6426,-928.305 107.788,-914.667"/>
<polygon fill="black" stroke="black" stroke-width="2.2" points="110.82,-916.43 113.482,-906.175 105.006,-912.532 110.82,-916.43"/>
<text text-anchor="middle" x="106.5" y="-927.8" font-family="Times New Roman,serif" font-size="14.00">4s</text>
</g>
<!-- 5874336997838087017 -->
<g id="node6" class="node"><title>5874336997838087017</title>
<polygon fill="none" stroke="black" points="202.5,-819 127.5,-819 127.5,-783 202.5,-783 202.5,-819"/>
<text text-anchor="middle" x="165" y="-797.3" font-family="Times New Roman,serif" font-size="14.00">&quot;final test&quot;</text>
</g>
<!-- 5874336997838087017&#45;&gt;&#45;480004666268336517 -->
<g id="edge9" class="edge"><title>5874336997838087017&#45;&gt;&#45;480004666268336517</title>
<path fill="none" stroke="black" stroke-width="2.6" d="M164.798,-782.799C164.661,-771.163 164.477,-755.548 164.32,-742.237"/>
<polygon fill="black" stroke="black" stroke-width="2.6" points="167.82,-742.134 164.202,-732.175 160.82,-742.216 167.82,-742.134"/>
<text text-anchor="middle" x="170.5" y="-753.8" font-family="Times New Roman,serif" font-size="14.00">5s</text>
</g>
<!-- &#45;4632010280326198875&#45;&gt;4601421142027757457 -->
<g id="edge10" class="edge"><title>&#45;4632010280326198875&#45;&gt;4601421142027757457</title>
<path fill="none" stroke="black" stroke-width="2.6" d="M170,-260.799C170,-249.163 170,-233.548 170,-220.237"/>
<polygon fill="black" stroke="black" stroke-width="2.6" points="173.5,-220.175 170,-210.175 166.5,-220.175 173.5,-220.175"/>
<text text-anchor="middle" x="176.5" y="-231.8" font-family="Times New Roman,serif" font-size="14.00">5s</text>
</g>
<!-- 66112014952212417&#45;&gt;&#45;480004666268336517 -->
<g id="edge11" class="edge"><title>66112014952212417&#45;&gt;&#45;480004666268336517</title>
<path fill="none" stroke="black" d="M116.212,-869.959C106.621,-848.963 94.003,-812.455 105,-783 111.248,-766.266 123.675,-750.922 135.519,-739.06"/>
<polygon fill="black" stroke="black" points="137.946,-741.583 142.759,-732.144 133.11,-736.521 137.946,-741.583"/>
<text text-anchor="middle" x="111.5" y="-797.3" font-family="Times New Roman,serif" font-size="14.00">1s</text>
</g>
<!-- 66112014952212417&#45;&gt;5874336997838087017 -->
<g id="edge12" class="edge"><title>66112014952212417&#45;&gt;5874336997838087017</title>
<path fill="none" stroke="black" stroke-width="2.6" d="M133.095,-869.799C138.679,-857.932 146.21,-841.928 152.554,-828.449"/>
<polygon fill="black" stroke="black" stroke-width="2.6" points="155.826,-829.714 156.917,-819.175 149.493,-826.733 155.826,-829.714"/>
<text text-anchor="middle" x="154.5" y="-840.8" font-family="Times New Roman,serif" font-size="14.00">5s</text>
</g>
<!-- &#45;60550648619381333&#45;&gt;&#45;606468339242818359 -->
<g id="edge13" class="edge"><title>&#45;60550648619381333&#45;&gt;&#45;606468339242818359</title>
<path fill="none" stroke="black" stroke-width="2.6" d="M119.251,-86.799C110.199,-74.5865 97.9001,-57.9921 87.7352,-44.2776"/>
<polygon fill="black" stroke="black" stroke-width="2.6" points="90.4965,-42.1253 81.73,-36.1754 84.8727,-46.2935 90.4965,-42.1253"/>
<text text-anchor="middle" x="111.5" y="-57.8" font-family="Times New Roman,serif" font-size="14.00">5s</text>
</g>
<!-- &#45;7264351477869569391&#45;&gt;&#45;4632010280326198875 -->
<g id="edge14" class="edge"><title>&#45;7264351477869569391&#45;&gt;&#45;4632010280326198875</title>
<path fill="none" stroke="black" stroke-width="2.6" d="M162.024,-347.799C163.393,-336.163 165.23,-320.548 166.796,-307.237"/>
<polygon fill="black" stroke="black" stroke-width="2.6" points="170.287,-307.516 167.979,-297.175 163.335,-306.698 170.287,-307.516"/>
<text text-anchor="middle" x="171.5" y="-318.8" font-family="Times New Roman,serif" font-size="14.00">5s</text>
</g>
<!-- 6741757954660197814&#45;&gt;&#45;480004666268336517 -->
<g id="edge15" class="edge"><title>6741757954660197814&#45;&gt;&#45;480004666268336517</title>
<path fill="none" stroke="black" d="M161.606,-645.175C162.017,-656.806 162.568,-672.419 163.038,-685.734"/>
<polygon fill="black" stroke="black" points="159.542,-685.929 163.393,-695.799 166.538,-685.682 159.542,-685.929"/>
<text text-anchor="middle" x="168.5" y="-666.8" font-family="Times New Roman,serif" font-size="14.00">1s</text>
</g>
<!-- 6741757954660197814&#45;&gt;9012781278052482139 -->
<g id="edge16" class="edge"><title>6741757954660197814&#45;&gt;9012781278052482139</title>
<path fill="none" stroke="black" stroke-width="2.6" d="M161,-608.799C161,-597.163 161,-581.548 161,-568.237"/>
<polygon fill="black" stroke="black" stroke-width="2.6" points="164.5,-568.175 161,-558.175 157.5,-568.175 164.5,-568.175"/>
<text text-anchor="middle" x="167.5" y="-579.8" font-family="Times New Roman,serif" font-size="14.00">5s</text>
</g>
</g>
</svg>
