<?xml version="1.0" encoding="UTF-8" standalone="no"?>
<!DOCTYPE svg PUBLIC "-//W3C//DTD SVG 1.1//EN"
 "http://www.w3.org/Graphics/SVG/1.1/DTD/svg11.dtd">
<!-- Generated by graphviz version 2.38.0 (20140413.2041)
 -->
<!-- Title: %3 Pages: 1 -->
<svg width="282pt" height="740pt"
 viewBox="0.00 0.00 282.00 740.00" xmlns="http://www.w3.org/2000/svg" xmlns:xlink="http://www.w3.org/1999/xlink">
<g id="graph0" class="graph" transform="scale(1 1) rotate(0) translate(4 736)">
<title>%3</title>
<!-- 1463027139197828162 -->
<g id="node1" class="node"><title>1463027139197828162</title>
<polygon fill="none" stroke="black" points="183.5,-297 92.5,-297 92.5,-261 183.5,-261 183.5,-297"/>
<text text-anchor="middle" x="138" y="-275.3" font-family="Times New Roman,serif" font-size="14.00">&quot;Production&quot;</text>
</g>
<!-- 4547193558737644576 -->
<g id="node5" class="node"><title>4547193558737644576</title>
<polygon fill="none" stroke="black" points="165.5,-210 90.5,-210 90.5,-174 165.5,-174 165.5,-210"/>
<text text-anchor="middle" x="128" y="-188.3" font-family="Times New Roman,serif" font-size="14.00">&quot;final test&quot;</text>
</g>
<!-- 1463027139197828162&#45;&gt;4547193558737644576 -->
<g id="edge1" class="edge"><title>1463027139197828162&#45;&gt;4547193558737644576</title>
<path fill="none" stroke="black" stroke-width="2.59998" d="M135.976,-260.799C134.607,-249.163 132.77,-233.548 131.204,-220.237"/>
<polygon fill="black" stroke="black" stroke-width="2.59998" points="134.665,-219.698 130.021,-210.175 127.713,-220.516 134.665,-219.698"/>
<text text-anchor="middle" x="140.5" y="-231.8" font-family="Times New Roman,serif" font-size="14.00">5s</text>
</g>
<!-- &#45;8040004112632882807 -->
<g id="node2" class="node"><title>&#45;8040004112632882807</title>
<polygon fill="none" stroke="black" points="240,-471 94,-471 94,-435 240,-435 240,-471"/>
<text text-anchor="middle" x="167" y="-449.3" font-family="Times New Roman,serif" font-size="14.00">&quot;arrival intermediate B&quot;</text>
</g>
<!-- &#45;5597908679208948226 -->
<g id="node9" class="node"><title>&#45;5597908679208948226</title>
<polygon fill="none" stroke="black" points="244,-384 78,-384 78,-348 244,-348 244,-384"/>
<text text-anchor="middle" x="161" y="-362.3" font-family="Times New Roman,serif" font-size="14.00">&quot;quick test intermediate B&quot;</text>
</g>
<!-- &#45;8040004112632882807&#45;&gt;&#45;5597908679208948226 -->
<g id="edge2" class="edge"><title>&#45;8040004112632882807&#45;&gt;&#45;5597908679208948226</title>
<path fill="none" stroke="black" stroke-width="2.59998" d="M165.786,-434.799C164.964,-423.163 163.862,-407.548 162.923,-394.237"/>
<polygon fill="black" stroke="black" stroke-width="2.59998" points="166.408,-393.904 162.212,-384.175 159.425,-394.397 166.408,-393.904"/>
<text text-anchor="middle" x="170.5" y="-405.8" font-family="Times New Roman,serif" font-size="14.00">5s</text>
</g>
<!-- &#45;2361389694493741539 -->
<g id="node3" class="node"><title>&#45;2361389694493741539</title>
<polygon fill="none" stroke="black" points="274,-558 66,-558 66,-522 274,-522 274,-558"/>
<text text-anchor="middle" x="170" y="-536.3" font-family="Times New Roman,serif" font-size="14.00">&quot;calculate demand intermediate B&quot;</text>
</g>
<!-- &#45;2361389694493741539&#45;&gt;&#45;8040004112632882807 -->
<g id="edge3" class="edge"><title>&#45;2361389694493741539&#45;&gt;&#45;8040004112632882807</title>
<path fill="none" stroke="black" stroke-width="2.59998" d="M169.393,-521.799C168.982,-510.163 168.431,-494.548 167.961,-481.237"/>
<polygon fill="black" stroke="black" stroke-width="2.59998" points="171.457,-481.046 167.606,-471.175 164.461,-481.293 171.457,-481.046"/>
<text text-anchor="middle" x="174.5" y="-492.8" font-family="Times New Roman,serif" font-size="14.00">5s</text>
</g>
<!-- 6848193166142856001 -->
<g id="node4" class="node"><title>6848193166142856001</title>
<polygon fill="none" stroke="black" points="136,-36 0,-36 0,-0 136,-0 136,-36"/>
<text text-anchor="middle" x="68" y="-14.3" font-family="Times New Roman,serif" font-size="14.00">&quot;delivery of product&quot;</text>
</g>
<!-- &#45;2109120038823343697 -->
<g id="node7" class="node"><title>&#45;2109120038823343697</title>
<polygon fill="none" stroke="black" points="184,-123 66,-123 66,-87 184,-87 184,-123"/>
<text text-anchor="middle" x="125" y="-101.3" font-family="Times New Roman,serif" font-size="14.00">&quot;prepare delivery&quot;</text>
</g>
<!-- 4547193558737644576&#45;&gt;&#45;2109120038823343697 -->
<g id="edge4" class="edge"><title>4547193558737644576&#45;&gt;&#45;2109120038823343697</title>
<path fill="none" stroke="black" stroke-width="2.59998" d="M127.393,-173.799C126.982,-162.163 126.431,-146.548 125.961,-133.237"/>
<polygon fill="black" stroke="black" stroke-width="2.59998" points="129.457,-133.046 125.606,-123.175 122.461,-133.293 129.457,-133.046"/>
<text text-anchor="middle" x="133.5" y="-144.8" font-family="Times New Roman,serif" font-size="14.00">5s</text>
</g>
<!-- &#45;6102983892321719105 -->
<g id="node6" class="node"><title>&#45;6102983892321719105</title>
<polygon fill="none" stroke="black" points="98.5,-732 39.5,-732 39.5,-696 98.5,-696 98.5,-732"/>
<text text-anchor="middle" x="69" y="-710.3" font-family="Times New Roman,serif" font-size="14.00">&quot;order&quot;</text>
</g>
<!-- &#45;6102983892321719105&#45;&gt;6848193166142856001 -->
<g id="edge5" class="edge"><title>&#45;6102983892321719105&#45;&gt;6848193166142856001</title>
<path fill="none" stroke="black" d="M58.6774,-695.761C49.6595,-679.044 38,-652.661 38,-628 38,-628 38,-628 38,-104 38,-83.4618 45.8848,-61.6419 53.5698,-45.2524"/>
<polygon fill="black" stroke="black" points="56.7112,-46.7956 58.0104,-36.2807 50.4376,-43.6904 56.7112,-46.7956"/>
<text text-anchor="middle" x="44.5" y="-362.3" font-family="Times New Roman,serif" font-size="14.00">4s</text>
</g>
<!-- 4929271288584112370 -->
<g id="node8" class="node"><title>4929271288584112370</title>
<polygon fill="none" stroke="black" points="185.5,-645 78.5,-645 78.5,-609 185.5,-609 185.5,-645"/>
<text text-anchor="middle" x="132" y="-623.3" font-family="Times New Roman,serif" font-size="14.00">&quot;process order&quot;</text>
</g>
<!-- &#45;6102983892321719105&#45;&gt;4929271288584112370 -->
<g id="edge6" class="edge"><title>&#45;6102983892321719105&#45;&gt;4929271288584112370</title>
<path fill="none" stroke="black" stroke-width="2.59998" d="M81.749,-695.799C90.8006,-683.587 103.1,-666.992 113.265,-653.278"/>
<polygon fill="black" stroke="black" stroke-width="2.59998" points="116.127,-655.293 119.27,-645.175 110.504,-651.125 116.127,-655.293"/>
<text text-anchor="middle" x="111.5" y="-666.8" font-family="Times New Roman,serif" font-size="14.00">5s</text>
</g>
<!-- &#45;2109120038823343697&#45;&gt;6848193166142856001 -->
<g id="edge7" class="edge"><title>&#45;2109120038823343697&#45;&gt;6848193166142856001</title>
<path fill="none" stroke="black" d="M113.465,-86.799C105.353,-74.7017 94.3574,-58.3049 85.2117,-44.6665"/>
<polygon fill="black" stroke="black" points="87.9941,-42.5315 79.5176,-36.1754 82.1803,-46.4302 87.9941,-42.5315"/>
<text text-anchor="middle" x="106.5" y="-57.8" font-family="Times New Roman,serif" font-size="14.00">4s</text>
</g>
<!-- 4929271288584112370&#45;&gt;&#45;2361389694493741539 -->
<g id="edge8" class="edge"><title>4929271288584112370&#45;&gt;&#45;2361389694493741539</title>
<path fill="none" stroke="black" stroke-width="2.59998" d="M139.69,-608.799C144.995,-596.932 152.15,-580.928 158.176,-567.449"/>
<polygon fill="black" stroke="black" stroke-width="2.59998" points="161.435,-568.733 162.322,-558.175 155.045,-565.876 161.435,-568.733"/>
<text text-anchor="middle" x="159.5" y="-579.8" font-family="Times New Roman,serif" font-size="14.00">5s</text>
</g>
<!-- &#45;5597908679208948226&#45;&gt;1463027139197828162 -->
<g id="edge9" class="edge"><title>&#45;5597908679208948226&#45;&gt;1463027139197828162</title>
<path fill="none" stroke="black" stroke-width="2.59998" d="M156.346,-347.799C153.166,-336.047 148.888,-320.238 145.263,-306.842"/>
<polygon fill="black" stroke="black" stroke-width="2.59998" points="148.638,-305.914 142.647,-297.175 141.881,-307.743 148.638,-305.914"/>
<text text-anchor="middle" x="156.5" y="-318.8" font-family="Times New Roman,serif" font-size="14.00">5s</text>
</g>
</g>
</svg>
