<?xml version="1.0" encoding="UTF-8" standalone="no"?>
<!DOCTYPE svg PUBLIC "-//W3C//DTD SVG 1.1//EN"
 "http://www.w3.org/Graphics/SVG/1.1/DTD/svg11.dtd">
<!-- Generated by graphviz version 2.38.0 (20140413.2041)
 -->
<!-- Title: %3 Pages: 1 -->
<svg width="305pt" height="1001pt"
 viewBox="0.00 0.00 304.50 1001.00" xmlns="http://www.w3.org/2000/svg" xmlns:xlink="http://www.w3.org/1999/xlink">
<g id="graph0" class="graph" transform="scale(1 1) rotate(0) translate(4 997)">
<title>%3</title>
<!-- 8342915579394193731 -->
<g id="node1" class="node"><title>8342915579394193731</title>
<polygon fill="none" stroke="black" points="181.5,-297 90.5,-297 90.5,-261 181.5,-261 181.5,-297"/>
<text text-anchor="middle" x="136" y="-275.3" font-family="Times New Roman,serif" font-size="14.00">&quot;Production&quot;</text>
</g>
<!-- 2854872375051805811 -->
<g id="node6" class="node"><title>2854872375051805811</title>
<polygon fill="none" stroke="black" points="164.5,-210 89.5,-210 89.5,-174 164.5,-174 164.5,-210"/>
<text text-anchor="middle" x="127" y="-188.3" font-family="Times New Roman,serif" font-size="14.00">&quot;final test&quot;</text>
</g>
<!-- 8342915579394193731&#45;&gt;2854872375051805811 -->
<g id="edge1" class="edge"><title>8342915579394193731&#45;&gt;2854872375051805811</title>
<path fill="none" stroke="black" stroke-width="2.59998" d="M134.179,-260.799C132.947,-249.163 131.293,-233.548 129.884,-220.237"/>
<polygon fill="black" stroke="black" stroke-width="2.59998" points="133.352,-219.751 128.819,-210.175 126.391,-220.488 133.352,-219.751"/>
<text text-anchor="middle" x="139.5" y="-231.8" font-family="Times New Roman,serif" font-size="14.00">5s</text>
</g>
<!-- 5221287171450559572 -->
<g id="node2" class="node"><title>5221287171450559572</title>
<polygon fill="none" stroke="black" points="296.5,-558 129.5,-558 129.5,-522 296.5,-522 296.5,-558"/>
<text text-anchor="middle" x="213" y="-536.3" font-family="Times New Roman,serif" font-size="14.00">&quot;Transport intermediate B&quot;</text>
</g>
<!-- &#45;6804760397905177197 -->
<g id="node3" class="node"><title>&#45;6804760397905177197</title>
<polygon fill="none" stroke="black" points="222,-471 76,-471 76,-435 222,-435 222,-471"/>
<text text-anchor="middle" x="149" y="-449.3" font-family="Times New Roman,serif" font-size="14.00">&quot;arrival intermediate B&quot;</text>
</g>
<!-- 5221287171450559572&#45;&gt;&#45;6804760397905177197 -->
<g id="edge2" class="edge"><title>5221287171450559572&#45;&gt;&#45;6804760397905177197</title>
<path fill="none" stroke="black" d="M200.049,-521.799C190.853,-509.587 178.359,-492.992 168.033,-479.278"/>
<polygon fill="black" stroke="black" points="170.743,-477.059 161.932,-471.175 165.151,-481.269 170.743,-477.059"/>
<text text-anchor="middle" x="191.5" y="-492.8" font-family="Times New Roman,serif" font-size="14.00">4s</text>
</g>
<!-- 2841983859030254625 -->
<g id="node12" class="node"><title>2841983859030254625</title>
<polygon fill="none" stroke="black" points="232,-384 66,-384 66,-348 232,-348 232,-384"/>
<text text-anchor="middle" x="149" y="-362.3" font-family="Times New Roman,serif" font-size="14.00">&quot;quick test intermediate B&quot;</text>
</g>
<!-- &#45;6804760397905177197&#45;&gt;2841983859030254625 -->
<g id="edge3" class="edge"><title>&#45;6804760397905177197&#45;&gt;2841983859030254625</title>
<path fill="none" stroke="black" stroke-width="2.59998" d="M149,-434.799C149,-423.163 149,-407.548 149,-394.237"/>
<polygon fill="black" stroke="black" stroke-width="2.59998" points="152.5,-394.175 149,-384.175 145.5,-394.175 152.5,-394.175"/>
<text text-anchor="middle" x="155.5" y="-405.8" font-family="Times New Roman,serif" font-size="14.00">5s</text>
</g>
<!-- &#45;4544675927628559992 -->
<g id="node4" class="node"><title>&#45;4544675927628559992</title>
<polygon fill="none" stroke="black" points="274,-819 66,-819 66,-783 274,-783 274,-819"/>
<text text-anchor="middle" x="170" y="-797.3" font-family="Times New Roman,serif" font-size="14.00">&quot;calculate demand intermediate B&quot;</text>
</g>
<!-- 2849834464656176013 -->
<g id="node7" class="node"><title>2849834464656176013</title>
<polygon fill="none" stroke="black" points="241,-732 99,-732 99,-696 241,-696 241,-732"/>
<text text-anchor="middle" x="170" y="-710.3" font-family="Times New Roman,serif" font-size="14.00">&quot;order intermediate B&quot;</text>
</g>
<!-- &#45;4544675927628559992&#45;&gt;2849834464656176013 -->
<g id="edge4" class="edge"><title>&#45;4544675927628559992&#45;&gt;2849834464656176013</title>
<path fill="none" stroke="black" stroke-width="2.59998" d="M170,-782.799C170,-771.163 170,-755.548 170,-742.237"/>
<polygon fill="black" stroke="black" stroke-width="2.59998" points="173.5,-742.175 170,-732.175 166.5,-742.175 173.5,-742.175"/>
<text text-anchor="middle" x="176.5" y="-753.8" font-family="Times New Roman,serif" font-size="14.00">5s</text>
</g>
<!-- &#45;3188346086908926727 -->
<g id="node5" class="node"><title>&#45;3188346086908926727</title>
<polygon fill="none" stroke="black" points="136,-36 0,-36 0,-0 136,-0 136,-36"/>
<text text-anchor="middle" x="68" y="-14.3" font-family="Times New Roman,serif" font-size="14.00">&quot;delivery of product&quot;</text>
</g>
<!-- 3728773583763908643 -->
<g id="node9" class="node"><title>3728773583763908643</title>
<polygon fill="none" stroke="black" points="184,-123 66,-123 66,-87 184,-87 184,-123"/>
<text text-anchor="middle" x="125" y="-101.3" font-family="Times New Roman,serif" font-size="14.00">&quot;prepare delivery&quot;</text>
</g>
<!-- 2854872375051805811&#45;&gt;3728773583763908643 -->
<g id="edge5" class="edge"><title>2854872375051805811&#45;&gt;3728773583763908643</title>
<path fill="none" stroke="black" stroke-width="2.59998" d="M126.595,-173.799C126.321,-162.163 125.954,-146.548 125.641,-133.237"/>
<polygon fill="black" stroke="black" stroke-width="2.59998" points="129.138,-133.09 125.404,-123.175 122.14,-133.255 129.138,-133.09"/>
<text text-anchor="middle" x="133.5" y="-144.8" font-family="Times New Roman,serif" font-size="14.00">5s</text>
</g>
<!-- 2849834464656176013&#45;&gt;&#45;6804760397905177197 -->
<g id="edge6" class="edge"><title>2849834464656176013&#45;&gt;&#45;6804760397905177197</title>
<path fill="none" stroke="black" stroke-width="2.59998" d="M153.51,-695.875C142.299,-683.012 128.387,-664.348 122,-645 104.862,-593.081 109.055,-575.567 120,-522 122.919,-507.712 128.96,-492.712 134.777,-480.446"/>
<polygon fill="black" stroke="black" stroke-width="2.59998" points="138.024,-481.775 139.329,-471.261 131.752,-478.666 138.024,-481.775"/>
<text text-anchor="middle" x="117.5" y="-579.8" font-family="Times New Roman,serif" font-size="14.00">5s</text>
</g>
<!-- 4061168510921849690 -->
<g id="node11" class="node"><title>4061168510921849690</title>
<polygon fill="none" stroke="black" points="289,-645 131,-645 131,-609 289,-609 289,-645"/>
<text text-anchor="middle" x="210" y="-623.3" font-family="Times New Roman,serif" font-size="14.00">&quot;produce intermediate B&quot;</text>
</g>
<!-- 2849834464656176013&#45;&gt;4061168510921849690 -->
<g id="edge7" class="edge"><title>2849834464656176013&#45;&gt;4061168510921849690</title>
<path fill="none" stroke="black" stroke-width="2.59998" d="M178.095,-695.799C183.679,-683.932 191.21,-667.928 197.554,-654.449"/>
<polygon fill="black" stroke="black" stroke-width="2.59998" points="200.826,-655.714 201.917,-645.175 194.493,-652.733 200.826,-655.714"/>
<text text-anchor="middle" x="199.5" y="-666.8" font-family="Times New Roman,serif" font-size="14.00">5s</text>
</g>
<!-- 4247419078047890264 -->
<g id="node8" class="node"><title>4247419078047890264</title>
<polygon fill="none" stroke="black" points="98.5,-993 39.5,-993 39.5,-957 98.5,-957 98.5,-993"/>
<text text-anchor="middle" x="69" y="-971.3" font-family="Times New Roman,serif" font-size="14.00">&quot;order&quot;</text>
</g>
<!-- 4247419078047890264&#45;&gt;&#45;3188346086908926727 -->
<g id="edge8" class="edge"><title>4247419078047890264&#45;&gt;&#45;3188346086908926727</title>
<path fill="none" stroke="black" d="M58.6774,-956.761C49.6595,-940.044 38,-913.661 38,-889 38,-889 38,-889 38,-104 38,-83.4618 45.8848,-61.6419 53.5698,-45.2524"/>
<polygon fill="black" stroke="black" points="56.7112,-46.7956 58.0104,-36.2807 50.4376,-43.6904 56.7112,-46.7956"/>
<text text-anchor="middle" x="44.5" y="-492.8" font-family="Times New Roman,serif" font-size="14.00">4s</text>
</g>
<!-- &#45;4184072166064665331 -->
<g id="node10" class="node"><title>&#45;4184072166064665331</title>
<polygon fill="none" stroke="black" points="185.5,-906 78.5,-906 78.5,-870 185.5,-870 185.5,-906"/>
<text text-anchor="middle" x="132" y="-884.3" font-family="Times New Roman,serif" font-size="14.00">&quot;process order&quot;</text>
</g>
<!-- 4247419078047890264&#45;&gt;&#45;4184072166064665331 -->
<g id="edge9" class="edge"><title>4247419078047890264&#45;&gt;&#45;4184072166064665331</title>
<path fill="none" stroke="black" stroke-width="2.59998" d="M81.749,-956.799C90.8006,-944.587 103.1,-927.992 113.265,-914.278"/>
<polygon fill="black" stroke="black" stroke-width="2.59998" points="116.127,-916.293 119.27,-906.175 110.504,-912.125 116.127,-916.293"/>
<text text-anchor="middle" x="111.5" y="-927.8" font-family="Times New Roman,serif" font-size="14.00">5s</text>
</g>
<!-- 3728773583763908643&#45;&gt;&#45;3188346086908926727 -->
<g id="edge10" class="edge"><title>3728773583763908643&#45;&gt;&#45;3188346086908926727</title>
<path fill="none" stroke="black" d="M113.465,-86.799C105.353,-74.7017 94.3574,-58.3049 85.2117,-44.6665"/>
<polygon fill="black" stroke="black" points="87.9941,-42.5315 79.5176,-36.1754 82.1803,-46.4302 87.9941,-42.5315"/>
<text text-anchor="middle" x="106.5" y="-57.8" font-family="Times New Roman,serif" font-size="14.00">4s</text>
</g>
<!-- &#45;4184072166064665331&#45;&gt;&#45;4544675927628559992 -->
<g id="edge11" class="edge"><title>&#45;4184072166064665331&#45;&gt;&#45;4544675927628559992</title>
<path fill="none" stroke="black" stroke-width="2.59998" d="M139.69,-869.799C144.995,-857.932 152.15,-841.928 158.176,-828.449"/>
<polygon fill="black" stroke="black" stroke-width="2.59998" points="161.435,-829.733 162.322,-819.175 155.045,-826.876 161.435,-829.733"/>
<text text-anchor="middle" x="160.5" y="-840.8" font-family="Times New Roman,serif" font-size="14.00">5s</text>
</g>
<!-- 4061168510921849690&#45;&gt;5221287171450559572 -->
<g id="edge12" class="edge"><title>4061168510921849690&#45;&gt;5221287171450559572</title>
<path fill="none" stroke="black" stroke-width="2.59998" d="M210.607,-608.799C211.018,-597.163 211.569,-581.548 212.039,-568.237"/>
<polygon fill="black" stroke="black" stroke-width="2.59998" points="215.539,-568.293 212.394,-558.175 208.543,-568.046 215.539,-568.293"/>
<text text-anchor="middle" x="217.5" y="-579.8" font-family="Times New Roman,serif" font-size="14.00">5s</text>
</g>
<!-- 2841983859030254625&#45;&gt;8342915579394193731 -->
<g id="edge13" class="edge"><title>2841983859030254625&#45;&gt;8342915579394193731</title>
<path fill="none" stroke="black" stroke-width="2.59998" d="M146.369,-347.799C144.59,-336.163 142.201,-320.548 140.166,-307.237"/>
<polygon fill="black" stroke="black" stroke-width="2.59998" points="143.599,-306.531 138.627,-297.175 136.679,-307.59 143.599,-306.531"/>
<text text-anchor="middle" x="150.5" y="-318.8" font-family="Times New Roman,serif" font-size="14.00">5s</text>
</g>
</g>
</svg>
