<?xml version="1.0" encoding="UTF-8" standalone="no"?>
<!DOCTYPE svg PUBLIC "-//W3C//DTD SVG 1.1//EN"
 "http://www.w3.org/Graphics/SVG/1.1/DTD/svg11.dtd">
<!-- Generated by graphviz version 2.38.0 (20140413.2041)
 -->
<!-- Title: %3 Pages: 1 -->
<svg width="505pt" height="131pt"
 viewBox="0.00 0.00 504.50 131.00" xmlns="http://www.w3.org/2000/svg" xmlns:xlink="http://www.w3.org/1999/xlink">
<g id="graph0" class="graph" transform="scale(1 1) rotate(0) translate(4 127)">
<title>%3</title>
<!-- &#45;2295686109530134379 -->
<g id="node1" class="node"><title>&#45;2295686109530134379</title>
<polygon fill="none" stroke="black" points="122.5,-123 34.5,-123 34.5,-87 122.5,-87 122.5,-123"/>
<text text-anchor="middle" x="78.5" y="-101.3" font-family="Times,serif" font-size="14.00">&quot;Production&quot;</text>
</g>
<!-- &#45;3507245082379025671 -->
<g id="node5" class="node"><title>&#45;3507245082379025671</title>
<polygon fill="none" stroke="black" points="157,-36 0,-36 0,-0 157,-0 157,-36"/>
<text text-anchor="middle" x="78.5" y="-14.3" font-family="Times,serif" font-size="14.00">&quot;produce intermediate B&quot;</text>
</g>
<!-- &#45;2295686109530134379&#45;&gt;&#45;3507245082379025671 -->
<g id="edge1" class="edge"><title>&#45;2295686109530134379&#45;&gt;&#45;3507245082379025671</title>
<path fill="none" stroke="black" d="M78.5,-86.799C78.5,-75.1626 78.5,-59.5479 78.5,-46.2368"/>
<polygon fill="black" stroke="black" points="82.0001,-46.1754 78.5,-36.1754 75.0001,-46.1755 82.0001,-46.1754"/>
<text text-anchor="middle" x="87" y="-57.8" font-family="Times,serif" font-size="14.00">3Y</text>
</g>
<!-- &#45;2649051132455227915 -->
<g id="node2" class="node"><title>&#45;2649051132455227915</title>
<polygon fill="none" stroke="black" points="324,-36 175,-36 175,-0 324,-0 324,-36"/>
<text text-anchor="middle" x="249.5" y="-14.3" font-family="Times,serif" font-size="14.00">&quot;arrival intermediate B&quot;</text>
</g>
<!-- &#45;3467196389156362122 -->
<g id="node3" class="node"><title>&#45;3467196389156362122</title>
<polygon fill="none" stroke="black" points="287.5,-123 211.5,-123 211.5,-87 287.5,-87 287.5,-123"/>
<text text-anchor="middle" x="249.5" y="-101.3" font-family="Times,serif" font-size="14.00">&quot;final test&quot;</text>
</g>
<!-- &#45;3467196389156362122&#45;&gt;&#45;2649051132455227915 -->
<g id="edge2" class="edge"><title>&#45;3467196389156362122&#45;&gt;&#45;2649051132455227915</title>
<path fill="none" stroke="black" d="M249.5,-86.799C249.5,-75.1626 249.5,-59.5479 249.5,-46.2368"/>
<polygon fill="black" stroke="black" points="253,-46.1754 249.5,-36.1754 246,-46.1755 253,-46.1754"/>
<text text-anchor="middle" x="258" y="-57.8" font-family="Times,serif" font-size="14.00">3Y</text>
</g>
<!-- &#45;3336506437060400879 -->
<g id="node4" class="node"><title>&#45;3336506437060400879</title>
<polygon fill="none" stroke="black" points="484.5,-36 342.5,-36 342.5,-0 484.5,-0 484.5,-36"/>
<text text-anchor="middle" x="413.5" y="-14.3" font-family="Times,serif" font-size="14.00">&quot;order intermediate B&quot;</text>
</g>
<!-- 7460384658666928272 -->
<g id="node6" class="node"><title>7460384658666928272</title>
<polygon fill="none" stroke="black" points="496.5,-123 330.5,-123 330.5,-87 496.5,-87 496.5,-123"/>
<text text-anchor="middle" x="413.5" y="-101.3" font-family="Times,serif" font-size="14.00">&quot;quick test intermediate B&quot;</text>
</g>
<!-- 7460384658666928272&#45;&gt;&#45;3336506437060400879 -->
<g id="edge3" class="edge"><title>7460384658666928272&#45;&gt;&#45;3336506437060400879</title>
<path fill="none" stroke="black" d="M413.5,-86.799C413.5,-75.1626 413.5,-59.5479 413.5,-46.2368"/>
<polygon fill="black" stroke="black" points="417,-46.1754 413.5,-36.1754 410,-46.1755 417,-46.1754"/>
<text text-anchor="middle" x="422" y="-57.8" font-family="Times,serif" font-size="14.00">3Y</text>
</g>
</g>
</svg>
