<?xml version="1.0" encoding="UTF-8" standalone="no"?>
<!DOCTYPE svg PUBLIC "-//W3C//DTD SVG 1.1//EN"
 "http://www.w3.org/Graphics/SVG/1.1/DTD/svg11.dtd">
<!-- Generated by graphviz version 2.38.0 (20140413.2041)
 -->
<!-- Title: %3 Pages: 1 -->
<svg width="216pt" height="740pt"
 viewBox="0.00 0.00 216.00 740.00" xmlns="http://www.w3.org/2000/svg" xmlns:xlink="http://www.w3.org/1999/xlink">
<g id="graph0" class="graph" transform="scale(1 1) rotate(0) translate(4 736)">
<title>%3</title>
<!-- 7843613461957611814 -->
<g id="node1" class="node"><title>7843613461957611814</title>
<polygon fill="none" stroke="black" points="149.5,-297 58.5,-297 58.5,-261 149.5,-261 149.5,-297"/>
<text text-anchor="middle" x="104" y="-275.3" font-family="Times New Roman,serif" font-size="14.00">&quot;Production&quot;</text>
</g>
<!-- 4693612376740963771 -->
<g id="node5" class="node"><title>4693612376740963771</title>
<polygon fill="none" stroke="black" points="141.5,-210 66.5,-210 66.5,-174 141.5,-174 141.5,-210"/>
<text text-anchor="middle" x="104" y="-188.3" font-family="Times New Roman,serif" font-size="14.00">&quot;final test&quot;</text>
</g>
<!-- 7843613461957611814&#45;&gt;4693612376740963771 -->
<g id="edge1" class="edge"><title>7843613461957611814&#45;&gt;4693612376740963771</title>
<path fill="none" stroke="black" stroke-width="2.59998" d="M104,-260.799C104,-249.163 104,-233.548 104,-220.237"/>
<polygon fill="black" stroke="black" stroke-width="2.59998" points="107.5,-220.175 104,-210.175 100.5,-220.175 107.5,-220.175"/>
<text text-anchor="middle" x="110.5" y="-231.8" font-family="Times New Roman,serif" font-size="14.00">5s</text>
</g>
<!-- 6197810329681327795 -->
<g id="node2" class="node"><title>6197810329681327795</title>
<polygon fill="none" stroke="black" points="177,-471 31,-471 31,-435 177,-435 177,-471"/>
<text text-anchor="middle" x="104" y="-449.3" font-family="Times New Roman,serif" font-size="14.00">&quot;arrival intermediate B&quot;</text>
</g>
<!-- 1955516923506368400 -->
<g id="node9" class="node"><title>1955516923506368400</title>
<polygon fill="none" stroke="black" points="187,-384 21,-384 21,-348 187,-348 187,-384"/>
<text text-anchor="middle" x="104" y="-362.3" font-family="Times New Roman,serif" font-size="14.00">&quot;quick test intermediate B&quot;</text>
</g>
<!-- 6197810329681327795&#45;&gt;1955516923506368400 -->
<g id="edge2" class="edge"><title>6197810329681327795&#45;&gt;1955516923506368400</title>
<path fill="none" stroke="black" stroke-width="2.59998" d="M104,-434.799C104,-423.163 104,-407.548 104,-394.237"/>
<polygon fill="black" stroke="black" stroke-width="2.59998" points="107.5,-394.175 104,-384.175 100.5,-394.175 107.5,-394.175"/>
<text text-anchor="middle" x="110.5" y="-405.8" font-family="Times New Roman,serif" font-size="14.00">5s</text>
</g>
<!-- 9140482104701942729 -->
<g id="node3" class="node"><title>9140482104701942729</title>
<polygon fill="none" stroke="black" points="208,-558 0,-558 0,-522 208,-522 208,-558"/>
<text text-anchor="middle" x="104" y="-536.3" font-family="Times New Roman,serif" font-size="14.00">&quot;calculate demand intermediate B&quot;</text>
</g>
<!-- 9140482104701942729&#45;&gt;6197810329681327795 -->
<g id="edge3" class="edge"><title>9140482104701942729&#45;&gt;6197810329681327795</title>
<path fill="none" stroke="black" stroke-width="2.59998" d="M104,-521.799C104,-510.163 104,-494.548 104,-481.237"/>
<polygon fill="black" stroke="black" stroke-width="2.59998" points="107.5,-481.175 104,-471.175 100.5,-481.175 107.5,-481.175"/>
<text text-anchor="middle" x="110.5" y="-492.8" font-family="Times New Roman,serif" font-size="14.00">5s</text>
</g>
<!-- 3511450455266663101 -->
<g id="node4" class="node"><title>3511450455266663101</title>
<polygon fill="none" stroke="black" points="172,-36 36,-36 36,-0 172,-0 172,-36"/>
<text text-anchor="middle" x="104" y="-14.3" font-family="Times New Roman,serif" font-size="14.00">&quot;delivery of product&quot;</text>
</g>
<!-- 1818982132132632795 -->
<g id="node7" class="node"><title>1818982132132632795</title>
<polygon fill="none" stroke="black" points="163,-123 45,-123 45,-87 163,-87 163,-123"/>
<text text-anchor="middle" x="104" y="-101.3" font-family="Times New Roman,serif" font-size="14.00">&quot;prepare delivery&quot;</text>
</g>
<!-- 4693612376740963771&#45;&gt;1818982132132632795 -->
<g id="edge4" class="edge"><title>4693612376740963771&#45;&gt;1818982132132632795</title>
<path fill="none" stroke="black" stroke-width="2.59998" d="M104,-173.799C104,-162.163 104,-146.548 104,-133.237"/>
<polygon fill="black" stroke="black" stroke-width="2.59998" points="107.5,-133.175 104,-123.175 100.5,-133.175 107.5,-133.175"/>
<text text-anchor="middle" x="110.5" y="-144.8" font-family="Times New Roman,serif" font-size="14.00">5s</text>
</g>
<!-- &#45;5591948836397383021 -->
<g id="node6" class="node"><title>&#45;5591948836397383021</title>
<polygon fill="none" stroke="black" points="133.5,-732 74.5,-732 74.5,-696 133.5,-696 133.5,-732"/>
<text text-anchor="middle" x="104" y="-710.3" font-family="Times New Roman,serif" font-size="14.00">&quot;order&quot;</text>
</g>
<!-- 166167300526875029 -->
<g id="node8" class="node"><title>166167300526875029</title>
<polygon fill="none" stroke="black" points="157.5,-645 50.5,-645 50.5,-609 157.5,-609 157.5,-645"/>
<text text-anchor="middle" x="104" y="-623.3" font-family="Times New Roman,serif" font-size="14.00">&quot;process order&quot;</text>
</g>
<!-- &#45;5591948836397383021&#45;&gt;166167300526875029 -->
<g id="edge5" class="edge"><title>&#45;5591948836397383021&#45;&gt;166167300526875029</title>
<path fill="none" stroke="black" stroke-width="2.59998" d="M104,-695.799C104,-684.163 104,-668.548 104,-655.237"/>
<polygon fill="black" stroke="black" stroke-width="2.59998" points="107.5,-655.175 104,-645.175 100.5,-655.175 107.5,-655.175"/>
<text text-anchor="middle" x="110.5" y="-666.8" font-family="Times New Roman,serif" font-size="14.00">5s</text>
</g>
<!-- 1818982132132632795&#45;&gt;3511450455266663101 -->
<g id="edge6" class="edge"><title>1818982132132632795&#45;&gt;3511450455266663101</title>
<path fill="none" stroke="black" d="M104,-86.799C104,-75.1626 104,-59.5479 104,-46.2368"/>
<polygon fill="black" stroke="black" points="107.5,-46.1754 104,-36.1754 100.5,-46.1755 107.5,-46.1754"/>
<text text-anchor="middle" x="110.5" y="-57.8" font-family="Times New Roman,serif" font-size="14.00">4s</text>
</g>
<!-- 166167300526875029&#45;&gt;9140482104701942729 -->
<g id="edge7" class="edge"><title>166167300526875029&#45;&gt;9140482104701942729</title>
<path fill="none" stroke="black" stroke-width="2.59998" d="M104,-608.799C104,-597.163 104,-581.548 104,-568.237"/>
<polygon fill="black" stroke="black" stroke-width="2.59998" points="107.5,-568.175 104,-558.175 100.5,-568.175 107.5,-568.175"/>
<text text-anchor="middle" x="110.5" y="-579.8" font-family="Times New Roman,serif" font-size="14.00">5s</text>
</g>
<!-- 1955516923506368400&#45;&gt;7843613461957611814 -->
<g id="edge8" class="edge"><title>1955516923506368400&#45;&gt;7843613461957611814</title>
<path fill="none" stroke="black" stroke-width="2.59998" d="M104,-347.799C104,-336.163 104,-320.548 104,-307.237"/>
<polygon fill="black" stroke="black" stroke-width="2.59998" points="107.5,-307.175 104,-297.175 100.5,-307.175 107.5,-307.175"/>
<text text-anchor="middle" x="110.5" y="-318.8" font-family="Times New Roman,serif" font-size="14.00">5s</text>
</g>
</g>
</svg>
